<svg xmlns="http://www.w3.org/2000/svg" xmlns:xlink="http://www.w3.org/1999/xlink" width="1920" zoomAndPan="magnify" viewBox="0 0 1440 809.999993" height="1080" preserveAspectRatio="xMidYMid meet" version="1.0"><defs><g/><clipPath id="ad4f442861"><path d="M 0 0 L 742.59375 0 L 742.59375 810 L 0 810 Z M 0 0 " clip-rule="nonzero"/></clipPath><clipPath id="b945028e29"><path d="M 126 69 L 617 69 L 617 740.832031 L 126 740.832031 Z M 126 69 " clip-rule="nonzero"/></clipPath></defs><rect x="-144" width="1728" fill="#ffffff" y="-80.999999" height="971.999992" fill-opacity="1"/><rect x="-144" width="1728" fill="#004aad" y="-80.999999" height="971.999992" fill-opacity="1"/><g clip-path="url(#ad4f442861)"><path fill="#e8e8e8" d="M 0 0 L 742.59375 0 L 742.59375 810 L 0 810 Z M 0 0 " fill-opacity="1" fill-rule="nonzero"/></g><path fill="#004aad" d="M 572.820312 294.207031 C 576.3125 294.207031 579.132812 292.792969 581.3125 289.964844 C 583.488281 287.136719 584.5625 283.613281 584.5625 279.394531 C 584.5625 274.851562 583.503906 271.21875 581.371094 268.46875 C 579.246094 265.722656 576.488281 264.347656 573.105469 264.347656 C 569.515625 264.347656 566.640625 265.699219 564.488281 268.398438 C 562.332031 271.105469 561.265625 274.691406 561.265625 279.183594 C 561.265625 283.660156 562.324219 287.289062 564.457031 290.054688 C 566.574219 292.824219 569.371094 294.207031 572.820312 294.207031 Z M 572.820312 294.207031 " fill-opacity="1" fill-rule="nonzero"/><path fill="#e8e8e8" d="M 459.21875 194.042969 L 472.359375 194.042969 L 472.359375 201.4375 L 459.21875 201.4375 Z M 459.21875 194.042969 " fill-opacity="1" fill-rule="nonzero"/><g clip-path="url(#b945028e29)"><path fill="#004aad" d="M 616.191406 534.433594 L 616.191406 152.734375 L 528.617188 152.734375 L 528.617188 194.035156 L 501.910156 194.035156 L 501.910156 88.960938 L 480.140625 88.960938 L 480.140625 69.007812 L 186.570312 69.007812 L 186.570312 88.953125 L 164.800781 88.953125 L 164.800781 716.070312 L 126.402344 716.070312 L 126.402344 740.972656 L 540.320312 740.972656 L 540.320312 716.070312 L 501.917969 716.070312 L 501.917969 493.117188 L 528.625 493.117188 L 528.625 534.417969 L 616.191406 534.417969 Z M 583.089844 487.527344 L 560.851562 487.527344 L 560.851562 486.644531 C 562.105469 486.644531 563.011719 486.25 563.535156 485.464844 C 564.0625 484.6875 564.335938 483.363281 564.335938 481.523438 L 564.335938 462.183594 C 564.335938 460.527344 564.085938 459.371094 563.59375 458.710938 C 563.082031 458.0625 562.179688 457.730469 560.851562 457.730469 L 560.851562 456.851562 L 571.84375 456.851562 L 571.84375 457.730469 C 570.621094 457.730469 569.742188 458.109375 569.214844 458.871094 C 568.683594 459.613281 568.417969 460.859375 568.417969 462.578125 L 568.417969 483.082031 C 568.417969 484.238281 568.644531 485.003906 569.136719 485.417969 C 569.613281 485.84375 570.535156 486.046875 571.890625 486.046875 L 577.992188 486.046875 C 579.867188 486.046875 581.191406 485.714844 581.945312 485.070312 C 582.695312 484.40625 583.398438 483 584.0625 480.84375 L 584.972656 480.84375 Z M 563.898438 394.484375 C 563.40625 393.78125 562.5 393.433594 561.152344 393.433594 L 561.152344 392.542969 L 583.261719 392.542969 L 583.261719 397.667969 L 582.6875 397.667969 C 582.371094 396.203125 581.929688 395.234375 581.339844 394.75 C 580.757812 394.273438 579.488281 394.03125 577.53125 394.03125 L 568.683594 394.03125 L 568.683594 407.167969 L 577.273438 407.167969 C 578.4375 407.167969 579.238281 406.960938 579.664062 406.539062 C 580.09375 406.128906 580.410156 405.328125 580.59375 404.164062 L 581.507812 404.164062 L 581.507812 411.613281 L 580.59375 411.613281 C 580.261719 410.3125 579.859375 409.488281 579.390625 409.15625 C 578.914062 408.824219 577.886719 408.65625 576.296875 408.65625 L 568.691406 408.65625 L 568.691406 419.636719 C 568.691406 420.414062 568.859375 420.949219 569.199219 421.261719 C 569.539062 421.578125 570.113281 421.738281 570.9375 421.738281 L 576.296875 421.738281 C 578.21875 421.738281 579.542969 421.625 580.277344 421.425781 C 581.015625 421.222656 581.628906 420.824219 582.128906 420.253906 C 582.640625 419.6875 583.179688 418.765625 583.753906 417.496094 L 584.667969 417.496094 L 583.253906 423.21875 L 561.144531 423.21875 L 561.144531 422.335938 C 562.527344 422.335938 563.445312 421.980469 563.921875 421.277344 C 564.390625 420.566406 564.625 419.324219 564.625 417.519531 L 564.625 398.320312 C 564.636719 396.453125 564.390625 395.175781 563.898438 394.484375 Z M 586.640625 334.117188 L 586.03125 334.117188 C 585.644531 332.429688 584.964844 331.273438 583.980469 330.652344 C 582.996094 330.039062 581.515625 329.730469 579.542969 329.730469 L 574.890625 329.730469 L 574.890625 353.328125 C 574.890625 355.175781 575.117188 356.421875 575.566406 357.066406 C 576.019531 357.714844 576.902344 358.039062 578.210938 358.039062 L 578.210938 358.925781 L 567.351562 358.925781 L 567.351562 358.039062 C 568.699219 358.039062 569.613281 357.675781 570.105469 356.921875 C 570.589844 356.179688 570.832031 354.925781 570.832031 353.164062 L 570.832031 329.722656 L 566.378906 329.722656 C 564.253906 329.722656 562.710938 330.0625 561.742188 330.742188 C 560.773438 331.417969 560.222656 332.550781 560.109375 334.109375 L 559.195312 334.109375 L 559.195312 327.078125 L 560.109375 327.078125 C 560.933594 327.847656 562.460938 328.226562 564.707031 328.226562 L 580.796875 328.226562 C 583.117188 328.226562 584.738281 327.847656 585.667969 327.078125 L 586.640625 327.078125 Z M 557 229.429688 C 558.347656 229.429688 559.261719 229.066406 559.753906 228.347656 C 560.246094 227.628906 560.488281 226.359375 560.488281 224.558594 L 560.488281 205.414062 C 560.488281 203.53125 560.238281 202.238281 559.738281 201.550781 C 559.238281 200.871094 558.332031 200.515625 557 200.515625 L 557 199.636719 L 568.09375 199.636719 L 568.09375 200.515625 C 566.753906 200.515625 565.824219 200.890625 565.304688 201.632812 C 564.796875 202.367188 564.539062 203.628906 564.539062 205.40625 L 564.539062 214.148438 L 581.25 214.148438 L 581.25 205.40625 C 581.25 203.523438 581.015625 202.230469 580.53125 201.542969 C 580.054688 200.863281 579.148438 200.507812 577.824219 200.507812 L 577.824219 199.628906 L 588.804688 199.628906 L 588.804688 200.507812 C 587.503906 200.507812 586.597656 200.863281 586.089844 201.585938 C 585.582031 202.304688 585.320312 203.570312 585.320312 205.40625 L 585.320312 224.550781 C 585.320312 226.390625 585.582031 227.652344 586.089844 228.363281 C 586.597656 229.066406 587.503906 229.421875 588.804688 229.421875 L 588.804688 230.3125 L 577.839844 230.3125 L 577.839844 229.421875 C 579.195312 229.421875 580.109375 229.074219 580.570312 228.363281 C 581.039062 227.652344 581.265625 226.375 581.265625 224.550781 L 581.265625 215.636719 L 564.554688 215.636719 L 564.554688 224.550781 C 564.554688 226.367188 564.804688 227.636719 565.320312 228.347656 C 565.832031 229.066406 566.769531 229.421875 568.109375 229.421875 L 568.109375 230.3125 L 557.015625 230.3125 L 557.015625 229.429688 Z M 561.265625 267.742188 C 564.402344 264.703125 568.3125 263.175781 573.007812 263.175781 C 577.554688 263.175781 581.410156 264.71875 584.5625 267.808594 C 587.714844 270.894531 589.289062 274.667969 589.289062 279.136719 C 589.289062 283.6875 587.699219 287.539062 584.523438 290.675781 C 581.339844 293.820312 577.46875 295.386719 572.878906 295.386719 C 568.320312 295.386719 564.449219 293.820312 561.289062 290.675781 C 558.128906 287.53125 556.546875 283.6875 556.546875 279.136719 C 556.546875 274.585938 558.121094 270.789062 561.265625 267.742188 Z M 409.160156 158.011719 C 409.160156 149.4375 416.109375 142.488281 424.691406 142.488281 L 456.84375 142.488281 C 465.417969 142.488281 472.367188 149.4375 472.367188 158.011719 L 472.367188 201.429688 L 409.167969 201.429688 L 409.167969 158.011719 Z M 301.757812 158.011719 C 301.757812 149.4375 308.707031 142.488281 317.28125 142.488281 L 349.433594 142.488281 C 358.007812 142.488281 364.957031 149.4375 364.957031 158.011719 L 364.957031 201.429688 L 301.757812 201.429688 Z M 301.757812 265.414062 C 301.757812 256.839844 308.707031 249.898438 317.28125 249.898438 L 349.433594 249.898438 C 358.007812 249.898438 364.957031 256.839844 364.957031 265.414062 L 364.957031 308.832031 L 301.757812 308.832031 Z M 301.757812 372.816406 C 301.757812 364.242188 308.707031 357.292969 317.28125 357.292969 L 349.433594 357.292969 C 358.007812 357.292969 364.957031 364.242188 364.957031 372.816406 L 364.957031 416.234375 L 301.757812 416.234375 Z M 301.757812 480.21875 C 301.757812 471.648438 308.707031 464.707031 317.28125 464.707031 L 349.433594 464.707031 C 358.007812 464.707031 364.957031 471.648438 364.957031 480.21875 L 364.957031 523.640625 L 301.757812 523.640625 Z M 257.554688 523.640625 L 194.351562 523.640625 L 194.351562 480.21875 C 194.351562 471.648438 201.304688 464.707031 209.875 464.707031 L 242.03125 464.707031 C 250.605469 464.707031 257.554688 471.648438 257.554688 480.21875 Z M 257.554688 416.234375 L 194.351562 416.234375 L 194.351562 372.816406 C 194.351562 364.242188 201.304688 357.292969 209.875 357.292969 L 242.03125 357.292969 C 250.605469 357.292969 257.554688 364.242188 257.554688 372.816406 Z M 257.554688 308.832031 L 194.351562 308.832031 L 194.351562 265.414062 C 194.351562 256.839844 201.304688 249.898438 209.875 249.898438 L 242.03125 249.898438 C 250.605469 249.898438 257.554688 256.839844 257.554688 265.414062 Z M 257.554688 201.429688 L 194.351562 201.429688 L 194.351562 158.011719 C 194.351562 149.4375 201.304688 142.488281 209.875 142.488281 L 242.03125 142.488281 C 250.605469 142.488281 257.554688 149.4375 257.554688 158.011719 Z M 383.015625 716.078125 L 283.6875 716.078125 L 283.6875 584.890625 L 383.015625 584.890625 Z M 472.359375 493.125 L 472.359375 523.632812 L 409.160156 523.632812 L 409.160156 480.210938 C 409.160156 471.636719 416.109375 464.695312 424.691406 464.695312 L 456.84375 464.695312 C 462.921875 464.695312 468.191406 468.203125 470.734375 473.289062 C 471.785156 475.371094 472.367188 477.722656 472.367188 480.210938 L 472.367188 493.125 Z M 472.359375 416.234375 L 409.160156 416.234375 L 409.160156 372.816406 C 409.160156 364.242188 416.109375 357.292969 424.691406 357.292969 L 456.84375 357.292969 C 465.417969 357.292969 472.367188 364.242188 472.367188 372.816406 L 472.367188 416.234375 Z M 472.359375 308.832031 L 409.160156 308.832031 L 409.160156 265.414062 C 409.160156 256.839844 416.109375 249.898438 424.691406 249.898438 L 456.84375 249.898438 C 465.417969 249.898438 472.367188 256.839844 472.367188 265.414062 L 472.367188 308.832031 Z M 501.910156 473.289062 L 501.910156 213.875 L 528.617188 213.875 L 528.617188 473.296875 L 501.910156 473.296875 Z M 501.910156 473.289062 " fill-opacity="1" fill-rule="nonzero"/></g><g fill="#ffffff" fill-opacity="1"><g transform="translate(742.595177, 325.143619)"><g><path d="M 144.046875 -237.140625 L 49.53125 -237.140625 L 49.53125 -231.53125 L 68.515625 -231.53125 L 68.515625 -14.75 C 68.515625 -8.664062 68.21875 -3.046875 67.625 2.109375 C 67.039062 7.265625 65.867188 11.773438 64.109375 15.640625 C 62.359375 19.503906 59.957031 22.546875 56.90625 24.765625 C 53.863281 26.992188 49.769531 28.109375 44.625 28.109375 C 39 28.109375 34.253906 27.460938 30.390625 26.171875 C 26.523438 24.878906 24.59375 23.769531 24.59375 22.84375 C 24.59375 21.90625 25.296875 21.4375 26.703125 21.4375 C 34.191406 21.4375 39.867188 19.148438 43.734375 14.578125 C 47.597656 10.015625 49.53125 4.921875 49.53125 -0.703125 C 49.53125 -6.328125 47.539062 -11.535156 43.5625 -16.328125 C 39.582031 -21.128906 33.609375 -23.53125 25.640625 -23.53125 C 18.148438 -23.53125 12.472656 -21.1875 8.609375 -16.5 C 4.742188 -11.820312 2.8125 -6.320312 2.8125 0 C 2.8125 4.21875 3.628906 8.375 5.265625 12.46875 C 6.910156 16.570312 9.488281 20.257812 13 23.53125 C 16.507812 26.8125 20.957031 29.445312 26.34375 31.4375 C 31.738281 33.4375 38.179688 34.4375 45.671875 34.4375 C 71.203125 34.4375 90.816406 27.523438 104.515625 13.703125 C 118.222656 -0.117188 125.078125 -21.316406 125.078125 -49.890625 L 125.078125 -231.53125 L 144.046875 -231.53125 Z M 144.046875 -237.140625 "/></g></g></g><g fill="#ffffff" fill-opacity="1"><g transform="translate(881.370323, 325.143619)"><g><path d="M 80.8125 -153.53125 C 65.351562 -153.53125 52.585938 -151.1875 42.515625 -146.5 C 32.441406 -141.820312 27.40625 -134.796875 27.40625 -125.421875 C 27.40625 -118.628906 29.335938 -113.769531 33.203125 -110.84375 C 37.066406 -107.914062 41.457031 -106.453125 46.375 -106.453125 C 50.351562 -106.453125 53.570312 -107.09375 56.03125 -108.375 C 58.488281 -109.664062 60.421875 -111.191406 61.828125 -112.953125 C 63.234375 -114.710938 64.171875 -116.644531 64.640625 -118.75 C 65.109375 -120.851562 65.34375 -122.609375 65.34375 -124.015625 C 65.34375 -129.867188 63.117188 -134.203125 58.671875 -137.015625 C 57.035156 -137.953125 56.21875 -139.125 56.21875 -140.53125 C 56.21875 -142.40625 57.972656 -143.984375 61.484375 -145.265625 C 64.992188 -146.554688 71.550781 -147.203125 81.15625 -147.203125 C 89.820312 -147.203125 95.441406 -144.859375 98.015625 -140.171875 C 100.597656 -135.492188 101.890625 -128.9375 101.890625 -120.5 L 101.890625 -92.40625 L 63.9375 -92.40625 C 54.332031 -92.40625 45.957031 -90.9375 38.8125 -88 C 31.675781 -85.070312 25.707031 -81.265625 20.90625 -76.578125 C 16.101562 -71.898438 12.53125 -66.570312 10.1875 -60.59375 C 7.84375 -54.625 6.671875 -48.597656 6.671875 -42.515625 C 6.671875 -36.191406 7.78125 -30.160156 10 -24.421875 C 12.226562 -18.679688 15.566406 -13.703125 20.015625 -9.484375 C 24.472656 -5.265625 30.039062 -1.925781 36.71875 0.53125 C 43.394531 2.988281 51.179688 4.21875 60.078125 4.21875 C 65.929688 4.21875 71.140625 3.628906 75.703125 2.453125 C 80.273438 1.285156 84.316406 -0.234375 87.828125 -2.109375 C 91.347656 -3.984375 94.453125 -5.972656 97.140625 -8.078125 C 99.835938 -10.191406 102.125 -12.179688 104 -14.046875 C 106.101562 -9.128906 110.316406 -4.851562 116.640625 -1.21875 C 122.960938 2.40625 132.097656 4.21875 144.046875 4.21875 C 152.472656 4.21875 159.144531 3.28125 164.0625 1.40625 C 168.988281 -0.46875 172.796875 -2.691406 175.484375 -5.265625 C 178.179688 -7.847656 179.9375 -10.660156 180.75 -13.703125 C 181.570312 -16.742188 181.984375 -19.554688 181.984375 -22.140625 C 181.984375 -24.003906 181.28125 -24.9375 179.875 -24.9375 C 178.238281 -24.9375 177.300781 -23.882812 177.0625 -21.78125 C 176.363281 -18.269531 175.253906 -15.222656 173.734375 -12.640625 C 172.210938 -10.066406 169.457031 -8.78125 165.46875 -8.78125 C 160.789062 -8.78125 157.804688 -10.359375 156.515625 -13.515625 C 155.222656 -16.679688 154.578125 -21.078125 154.578125 -26.703125 L 154.578125 -100.484375 C 154.578125 -110.316406 153.226562 -118.628906 150.53125 -125.421875 C 147.84375 -132.210938 143.515625 -137.71875 137.546875 -141.9375 C 131.578125 -146.15625 123.960938 -149.140625 114.703125 -150.890625 C 105.453125 -152.648438 94.15625 -153.53125 80.8125 -153.53125 Z M 101.890625 -86.078125 L 101.890625 -24.59375 C 101.890625 -22.488281 100.890625 -20.320312 98.890625 -18.09375 C 96.898438 -15.863281 94.5 -13.867188 91.6875 -12.109375 C 88.882812 -10.359375 86.078125 -8.894531 83.265625 -7.71875 C 80.453125 -6.550781 78.34375 -5.96875 76.9375 -5.96875 C 71.082031 -5.96875 66.925781 -8.835938 64.46875 -14.578125 C 62.007812 -20.316406 60.78125 -29.742188 60.78125 -42.859375 C 60.78125 -55.742188 62.828125 -66.164062 66.921875 -74.125 C 71.023438 -82.09375 77.878906 -86.078125 87.484375 -86.078125 Z M 101.890625 -86.078125 "/></g></g></g><g fill="#ffffff" fill-opacity="1"><g transform="translate(1056.332407, 325.143619)"><g><path d="M 150.71875 -138.078125 C 150.71875 -135.265625 150.367188 -133.035156 149.671875 -131.390625 L 120.15625 -56.921875 L 79.75 -145.453125 L 98.71875 -145.453125 L 98.71875 -151.078125 L 7.03125 -151.078125 L 7.03125 -145.453125 L 26 -145.453125 L 91.703125 0 L 103.640625 0 L 156.34375 -131.75 C 158.445312 -136.90625 161.195312 -140.476562 164.59375 -142.46875 C 167.988281 -144.457031 172.378906 -145.453125 177.765625 -145.453125 L 177.765625 -151.078125 L 136.3125 -151.078125 L 136.3125 -145.453125 C 141.46875 -145.453125 145.15625 -144.6875 147.375 -143.15625 C 149.601562 -141.632812 150.71875 -139.941406 150.71875 -138.078125 Z M 150.71875 -138.078125 "/></g></g></g><g fill="#ffffff" fill-opacity="1"><g transform="translate(1221.808628, 325.143619)"><g><path d="M 80.8125 -153.53125 C 65.351562 -153.53125 52.585938 -151.1875 42.515625 -146.5 C 32.441406 -141.820312 27.40625 -134.796875 27.40625 -125.421875 C 27.40625 -118.628906 29.335938 -113.769531 33.203125 -110.84375 C 37.066406 -107.914062 41.457031 -106.453125 46.375 -106.453125 C 50.351562 -106.453125 53.570312 -107.09375 56.03125 -108.375 C 58.488281 -109.664062 60.421875 -111.191406 61.828125 -112.953125 C 63.234375 -114.710938 64.171875 -116.644531 64.640625 -118.75 C 65.109375 -120.851562 65.34375 -122.609375 65.34375 -124.015625 C 65.34375 -129.867188 63.117188 -134.203125 58.671875 -137.015625 C 57.035156 -137.953125 56.21875 -139.125 56.21875 -140.53125 C 56.21875 -142.40625 57.972656 -143.984375 61.484375 -145.265625 C 64.992188 -146.554688 71.550781 -147.203125 81.15625 -147.203125 C 89.820312 -147.203125 95.441406 -144.859375 98.015625 -140.171875 C 100.597656 -135.492188 101.890625 -128.9375 101.890625 -120.5 L 101.890625 -92.40625 L 63.9375 -92.40625 C 54.332031 -92.40625 45.957031 -90.9375 38.8125 -88 C 31.675781 -85.070312 25.707031 -81.265625 20.90625 -76.578125 C 16.101562 -71.898438 12.53125 -66.570312 10.1875 -60.59375 C 7.84375 -54.625 6.671875 -48.597656 6.671875 -42.515625 C 6.671875 -36.191406 7.78125 -30.160156 10 -24.421875 C 12.226562 -18.679688 15.566406 -13.703125 20.015625 -9.484375 C 24.472656 -5.265625 30.039062 -1.925781 36.71875 0.53125 C 43.394531 2.988281 51.179688 4.21875 60.078125 4.21875 C 65.929688 4.21875 71.140625 3.628906 75.703125 2.453125 C 80.273438 1.285156 84.316406 -0.234375 87.828125 -2.109375 C 91.347656 -3.984375 94.453125 -5.972656 97.140625 -8.078125 C 99.835938 -10.191406 102.125 -12.179688 104 -14.046875 C 106.101562 -9.128906 110.316406 -4.851562 116.640625 -1.21875 C 122.960938 2.40625 132.097656 4.21875 144.046875 4.21875 C 152.472656 4.21875 159.144531 3.28125 164.0625 1.40625 C 168.988281 -0.46875 172.796875 -2.691406 175.484375 -5.265625 C 178.179688 -7.847656 179.9375 -10.660156 180.75 -13.703125 C 181.570312 -16.742188 181.984375 -19.554688 181.984375 -22.140625 C 181.984375 -24.003906 181.28125 -24.9375 179.875 -24.9375 C 178.238281 -24.9375 177.300781 -23.882812 177.0625 -21.78125 C 176.363281 -18.269531 175.253906 -15.222656 173.734375 -12.640625 C 172.210938 -10.066406 169.457031 -8.78125 165.46875 -8.78125 C 160.789062 -8.78125 157.804688 -10.359375 156.515625 -13.515625 C 155.222656 -16.679688 154.578125 -21.078125 154.578125 -26.703125 L 154.578125 -100.484375 C 154.578125 -110.316406 153.226562 -118.628906 150.53125 -125.421875 C 147.84375 -132.210938 143.515625 -137.71875 137.546875 -141.9375 C 131.578125 -146.15625 123.960938 -149.140625 114.703125 -150.890625 C 105.453125 -152.648438 94.15625 -153.53125 80.8125 -153.53125 Z M 101.890625 -86.078125 L 101.890625 -24.59375 C 101.890625 -22.488281 100.890625 -20.320312 98.890625 -18.09375 C 96.898438 -15.863281 94.5 -13.867188 91.6875 -12.109375 C 88.882812 -10.359375 86.078125 -8.894531 83.265625 -7.71875 C 80.453125 -6.550781 78.34375 -5.96875 76.9375 -5.96875 C 71.082031 -5.96875 66.925781 -8.835938 64.46875 -14.578125 C 62.007812 -20.316406 60.78125 -29.742188 60.78125 -42.859375 C 60.78125 -55.742188 62.828125 -66.164062 66.921875 -74.125 C 71.023438 -82.09375 77.878906 -86.078125 87.484375 -86.078125 Z M 101.890625 -86.078125 "/></g></g></g><path fill="#e8e8e8" d="M 850.601562 390.75 L 893.351562 390.75 L 893.351562 405 L 850.601562 405 M 907.601562 390.75 L 950.351562 390.75 L 950.351562 405 L 907.601562 405 M 964.601562 390.75 L 1007.351562 390.75 L 1007.351562 405 L 964.601562 405 M 1021.601562 390.75 L 1064.351562 390.75 L 1064.351562 405 L 1021.601562 405 M 1078.601562 390.75 L 1121.351562 390.75 L 1121.351562 405 L 1078.601562 405 M 1135.601562 390.75 L 1178.351562 390.75 L 1178.351562 405 L 1135.601562 405 M 1192.601562 390.75 L 1235.351562 390.75 L 1235.351562 405 L 1192.601562 405 M 1249.601562 390.75 L 1292.351562 390.75 L 1292.351562 405 L 1249.601562 405 " fill-opacity="1" fill-rule="nonzero"/><g fill="#ffffff" fill-opacity="1"><g transform="translate(865.067963, 644.730936)"><g><path d="M 127.375 -209.6875 L 43.796875 -209.6875 L 43.796875 -204.71875 L 60.578125 -204.71875 L 60.578125 -13.046875 C 60.578125 -7.660156 60.316406 -2.691406 59.796875 1.859375 C 59.285156 6.421875 58.25 10.410156 56.6875 13.828125 C 55.132812 17.242188 53.007812 19.9375 50.3125 21.90625 C 47.625 23.875 44.003906 24.859375 39.453125 24.859375 C 34.484375 24.859375 30.289062 24.285156 26.875 23.140625 C 23.457031 22.003906 21.75 21.019531 21.75 20.1875 C 21.75 19.363281 22.367188 18.953125 23.609375 18.953125 C 30.234375 18.953125 35.253906 16.929688 38.671875 12.890625 C 42.085938 8.847656 43.796875 4.34375 43.796875 -0.625 C 43.796875 -5.59375 42.035156 -10.195312 38.515625 -14.4375 C 34.992188 -18.6875 29.710938 -20.8125 22.671875 -20.8125 C 16.046875 -20.8125 11.023438 -18.738281 7.609375 -14.59375 C 4.191406 -10.457031 2.484375 -5.59375 2.484375 0 C 2.484375 3.726562 3.207031 7.40625 4.65625 11.03125 C 6.101562 14.65625 8.378906 17.914062 11.484375 20.8125 C 14.597656 23.707031 18.535156 26.035156 23.296875 27.796875 C 28.054688 29.554688 33.753906 30.4375 40.390625 30.4375 C 62.960938 30.4375 80.304688 24.328125 92.421875 12.109375 C 104.535156 -0.109375 110.59375 -18.847656 110.59375 -44.109375 L 110.59375 -204.71875 L 127.375 -204.71875 Z M 127.375 -209.6875 "/></g></g></g><g fill="#ffffff" fill-opacity="1"><g transform="translate(987.777143, 644.730936)"><g><path d="M 4.96875 -66.171875 C 4.96875 -57.472656 6.414062 -48.925781 9.3125 -40.53125 C 12.21875 -32.144531 16.515625 -24.691406 22.203125 -18.171875 C 27.898438 -11.648438 35.148438 -6.367188 43.953125 -2.328125 C 52.753906 1.710938 63.0625 3.734375 74.875 3.734375 C 86.675781 3.734375 96.976562 1.710938 105.78125 -2.328125 C 114.582031 -6.367188 121.828125 -11.648438 127.515625 -18.171875 C 133.210938 -24.691406 137.507812 -32.144531 140.40625 -40.53125 C 143.3125 -48.925781 144.765625 -57.472656 144.765625 -66.171875 C 144.765625 -74.867188 143.3125 -83.410156 140.40625 -91.796875 C 137.507812 -100.179688 133.210938 -107.632812 127.515625 -114.15625 C 121.828125 -120.6875 114.582031 -125.96875 105.78125 -130 C 96.976562 -134.039062 86.675781 -136.0625 74.875 -136.0625 C 63.0625 -136.0625 52.753906 -134.039062 43.953125 -130 C 35.148438 -125.96875 27.898438 -120.6875 22.203125 -114.15625 C 16.515625 -107.632812 12.21875 -100.179688 9.3125 -91.796875 C 6.414062 -83.410156 4.96875 -74.867188 4.96875 -66.171875 Z M 53.125 -77.671875 C 53.125 -85.953125 53.328125 -93.40625 53.734375 -100.03125 C 54.148438 -106.65625 55.082031 -112.191406 56.53125 -116.640625 C 57.988281 -121.097656 60.164062 -124.515625 63.0625 -126.890625 C 65.957031 -129.273438 69.894531 -130.46875 74.875 -130.46875 C 79.84375 -130.46875 83.773438 -129.273438 86.671875 -126.890625 C 89.566406 -124.515625 91.738281 -121.097656 93.1875 -116.640625 C 94.644531 -112.191406 95.578125 -106.65625 95.984375 -100.03125 C 96.398438 -93.40625 96.609375 -85.953125 96.609375 -77.671875 L 96.609375 -53.4375 C 96.609375 -44.945312 96.398438 -37.488281 95.984375 -31.0625 C 95.578125 -24.644531 94.644531 -19.257812 93.1875 -14.90625 C 91.738281 -10.5625 89.566406 -7.300781 86.671875 -5.125 C 83.773438 -2.945312 79.84375 -1.859375 74.875 -1.859375 C 69.894531 -1.859375 65.957031 -2.945312 63.0625 -5.125 C 60.164062 -7.300781 57.988281 -10.5625 56.53125 -14.90625 C 55.082031 -19.257812 54.148438 -24.644531 53.734375 -31.0625 C 53.328125 -37.488281 53.125 -44.945312 53.125 -53.4375 Z M 53.125 -77.671875 "/></g></g></g><g fill="#ffffff" fill-opacity="1"><g transform="translate(1125.087167, 644.730936)"><g><path d="M 98.78125 -1.859375 L 142.59375 -116.5 C 144.25 -121.050781 146.734375 -124.207031 150.046875 -125.96875 C 153.359375 -127.726562 157.085938 -128.609375 161.234375 -128.609375 L 161.234375 -133.578125 L 124.578125 -133.578125 L 124.578125 -128.609375 C 129.546875 -128.609375 132.960938 -127.832031 134.828125 -126.28125 C 136.691406 -124.726562 137.625 -123.125 137.625 -121.46875 C 137.625 -119.394531 137.3125 -117.738281 136.6875 -116.5 L 109.046875 -44.109375 L 68.96875 -128.609375 L 85.734375 -128.609375 L 85.734375 -133.578125 L 5.59375 -133.578125 L 5.59375 -128.609375 L 22.0625 -128.609375 L 88.84375 10.5625 C 87.8125 14.914062 86.566406 19.472656 85.109375 24.234375 C 83.660156 28.992188 81.59375 35.207031 78.90625 42.875 C 75.59375 52.394531 71.914062 60.109375 67.875 66.015625 C 63.84375 71.921875 57.992188 74.875 50.328125 74.875 C 52.398438 73.414062 54.109375 71.597656 55.453125 69.421875 C 56.796875 67.253906 57.46875 63.992188 57.46875 59.640625 C 57.46875 54.878906 55.8125 50.6875 52.5 47.0625 C 49.1875 43.4375 44.628906 41.625 38.828125 41.625 C 33.035156 41.625 28.222656 43.382812 24.390625 46.90625 C 20.554688 50.425781 18.640625 54.773438 18.640625 59.953125 C 18.640625 66.992188 21.125 72.273438 26.09375 75.796875 C 31.0625 79.316406 36.550781 81.078125 42.5625 81.078125 C 48.5625 81.078125 53.632812 80.507812 57.78125 79.375 C 61.925781 78.238281 65.445312 76.375 68.34375 73.78125 C 71.238281 71.1875 73.828125 67.816406 76.109375 63.671875 C 78.390625 59.535156 80.664062 54.363281 82.9375 48.15625 C 84.394531 44.007812 85.847656 39.601562 87.296875 34.9375 C 88.742188 30.28125 90.140625 25.722656 91.484375 21.265625 C 92.828125 16.816406 94.117188 12.570312 95.359375 8.53125 C 96.609375 4.5 97.75 1.035156 98.78125 -1.859375 Z M 98.78125 -1.859375 "/></g></g></g><g fill="#ffffff" fill-opacity="1"><g transform="translate(1278.240684, 644.730936)"><g><path d="M 71.453125 -135.75 C 57.785156 -135.75 46.5 -133.675781 37.59375 -129.53125 C 28.6875 -125.394531 24.234375 -119.1875 24.234375 -110.90625 C 24.234375 -104.894531 25.941406 -100.59375 29.359375 -98 C 32.773438 -95.414062 36.65625 -94.125 41 -94.125 C 44.519531 -94.125 47.367188 -94.691406 49.546875 -95.828125 C 51.722656 -96.972656 53.429688 -98.320312 54.671875 -99.875 C 55.921875 -101.425781 56.75 -103.132812 57.15625 -105 C 57.570312 -106.863281 57.78125 -108.414062 57.78125 -109.65625 C 57.78125 -114.832031 55.8125 -118.664062 51.875 -121.15625 C 50.425781 -121.988281 49.703125 -123.023438 49.703125 -124.265625 C 49.703125 -125.921875 51.253906 -127.316406 54.359375 -128.453125 C 57.472656 -129.597656 63.273438 -130.171875 71.765625 -130.171875 C 79.421875 -130.171875 84.390625 -128.097656 86.671875 -123.953125 C 88.953125 -119.804688 90.09375 -114.007812 90.09375 -106.5625 L 90.09375 -81.703125 L 56.546875 -81.703125 C 48.046875 -81.703125 40.640625 -80.40625 34.328125 -77.8125 C 28.015625 -75.226562 22.734375 -71.863281 18.484375 -67.71875 C 14.234375 -63.582031 11.070312 -58.875 9 -53.59375 C 6.9375 -48.3125 5.90625 -42.976562 5.90625 -37.59375 C 5.90625 -32 6.890625 -26.664062 8.859375 -21.59375 C 10.828125 -16.519531 13.773438 -12.117188 17.703125 -8.390625 C 21.640625 -4.660156 26.554688 -1.707031 32.453125 0.46875 C 38.359375 2.644531 45.25 3.734375 53.125 3.734375 C 58.300781 3.734375 62.90625 3.210938 66.9375 2.171875 C 70.976562 1.140625 74.550781 -0.203125 77.65625 -1.859375 C 80.769531 -3.515625 83.515625 -5.273438 85.890625 -7.140625 C 88.273438 -9.003906 90.296875 -10.765625 91.953125 -12.421875 C 93.816406 -8.078125 97.546875 -4.296875 103.140625 -1.078125 C 108.734375 2.128906 116.8125 3.734375 127.375 3.734375 C 134.820312 3.734375 140.71875 2.898438 145.0625 1.234375 C 149.414062 -0.421875 152.785156 -2.382812 155.171875 -4.65625 C 157.554688 -6.9375 159.109375 -9.421875 159.828125 -12.109375 C 160.554688 -14.804688 160.921875 -17.296875 160.921875 -19.578125 C 160.921875 -21.234375 160.300781 -22.0625 159.0625 -22.0625 C 157.601562 -22.0625 156.773438 -21.128906 156.578125 -19.265625 C 155.953125 -16.148438 154.960938 -13.453125 153.609375 -11.171875 C 152.265625 -8.898438 149.832031 -7.765625 146.3125 -7.765625 C 142.175781 -7.765625 139.535156 -9.160156 138.390625 -11.953125 C 137.253906 -14.753906 136.6875 -18.640625 136.6875 -23.609375 L 136.6875 -88.84375 C 136.6875 -97.539062 135.492188 -104.890625 133.109375 -110.890625 C 130.734375 -116.898438 126.90625 -121.769531 121.625 -125.5 C 116.34375 -129.226562 109.609375 -131.867188 101.421875 -133.421875 C 93.242188 -134.972656 83.253906 -135.75 71.453125 -135.75 Z M 90.09375 -76.109375 L 90.09375 -21.75 C 90.09375 -19.882812 89.210938 -17.96875 87.453125 -16 C 85.691406 -14.03125 83.566406 -12.269531 81.078125 -10.71875 C 78.597656 -9.164062 76.113281 -7.867188 73.625 -6.828125 C 71.132812 -5.796875 69.269531 -5.28125 68.03125 -5.28125 C 62.851562 -5.28125 59.175781 -7.816406 57 -12.890625 C 54.832031 -17.960938 53.75 -26.300781 53.75 -37.90625 C 53.75 -49.289062 55.554688 -58.503906 59.171875 -65.546875 C 62.796875 -72.585938 68.859375 -76.109375 77.359375 -76.109375 Z M 90.09375 -76.109375 "/></g></g></g></svg>