<svg xmlns="http://www.w3.org/2000/svg" xmlns:xlink="http://www.w3.org/1999/xlink" width="1920" zoomAndPan="magnify" viewBox="0 0 1440 809.999993" height="1080" preserveAspectRatio="xMidYMid meet" version="1.0"><defs><g/><clipPath id="2b35e1c44f"><path d="M 0 0 L 742.59375 0 L 742.59375 810 L 0 810 Z M 0 0 " clip-rule="nonzero"/></clipPath><clipPath id="1317744398"><path d="M 0 0.75 L 1440 0.75 L 1440 405.75 L 0 405.75 Z M 0 0.75 " clip-rule="nonzero"/></clipPath><clipPath id="864b908836"><path d="M 598 51.34375 L 857 51.34375 L 857 405 L 598 405 Z M 598 51.34375 " clip-rule="nonzero"/></clipPath><clipPath id="72b89714e0"><path d="M 312.460938 9 L 1121.710938 9 L 1121.710938 405.484375 L 312.460938 405.484375 Z M 312.460938 9 " clip-rule="nonzero"/></clipPath></defs><rect x="-144" width="1728" fill="#ffffff" y="-80.999999" height="971.999992" fill-opacity="1"/><rect x="-144" width="1728" fill="#004aad" y="-80.999999" height="971.999992" fill-opacity="1"/><g clip-path="url(#2b35e1c44f)"><path fill="#e8e8e8" d="M 0 0 L 742.59375 0 L 742.59375 810 L 0 810 Z M 0 0 " fill-opacity="1" fill-rule="nonzero"/></g><g clip-path="url(#1317744398)"><path fill="#004aad" d="M 0 0.75 L 1440 0.75 L 1440 405.75 L 0 405.75 Z M 0 0.75 " fill-opacity="1" fill-rule="nonzero"/></g><path fill="#004aad" d="M 0 405 L 1440 405 L 1440 810 L 0 810 Z M 0 405 " fill-opacity="1" fill-rule="nonzero"/><path fill="#004aad" d="M 833.382812 169.894531 C 835.21875 169.894531 836.699219 169.148438 837.847656 167.664062 C 838.992188 166.175781 839.558594 164.320312 839.558594 162.101562 C 839.558594 159.714844 839 157.800781 837.878906 156.355469 C 836.761719 154.910156 835.3125 154.1875 833.53125 154.1875 C 831.640625 154.1875 830.128906 154.898438 829 156.316406 C 827.863281 157.742188 827.300781 159.628906 827.300781 161.992188 C 827.300781 164.347656 827.859375 166.253906 828.980469 167.710938 C 830.09375 169.167969 831.566406 169.894531 833.382812 169.894531 Z M 833.382812 169.894531 " fill-opacity="1" fill-rule="nonzero"/><path fill="#e8e8e8" d="M 773.625 117.207031 L 780.539062 117.207031 L 780.539062 121.097656 L 773.625 121.097656 Z M 773.625 117.207031 " fill-opacity="1" fill-rule="nonzero"/><g clip-path="url(#864b908836)"><path fill="#e8e8e8" d="M 856.195312 296.253906 L 856.195312 95.480469 L 810.128906 95.480469 L 810.128906 117.203125 L 796.082031 117.203125 L 796.082031 61.933594 L 784.632812 61.933594 L 784.632812 51.4375 L 630.210938 51.4375 L 630.210938 61.929688 L 618.761719 61.929688 L 618.761719 391.796875 L 598.5625 391.796875 L 598.5625 404.894531 L 816.285156 404.894531 L 816.285156 391.796875 L 796.085938 391.796875 L 796.085938 274.523438 L 810.132812 274.523438 L 810.132812 296.246094 L 856.195312 296.246094 Z M 838.785156 271.582031 L 827.085938 271.582031 L 827.085938 271.117188 C 827.746094 271.117188 828.222656 270.910156 828.496094 270.496094 C 828.773438 270.089844 828.917969 269.390625 828.917969 268.421875 L 828.917969 258.25 C 828.917969 257.378906 828.785156 256.773438 828.527344 256.421875 C 828.257812 256.082031 827.78125 255.910156 827.085938 255.910156 L 827.085938 255.445312 L 832.867188 255.445312 L 832.867188 255.910156 C 832.226562 255.910156 831.761719 256.109375 831.484375 256.507812 C 831.203125 256.898438 831.0625 257.554688 831.0625 258.460938 L 831.0625 269.242188 C 831.0625 269.851562 831.183594 270.253906 831.441406 270.472656 C 831.695312 270.695312 832.179688 270.804688 832.890625 270.804688 L 836.101562 270.804688 C 837.085938 270.804688 837.785156 270.628906 838.179688 270.289062 C 838.574219 269.941406 838.945312 269.199219 839.292969 268.066406 L 839.773438 268.066406 Z M 828.6875 222.640625 C 828.429688 222.269531 827.953125 222.085938 827.242188 222.085938 L 827.242188 221.621094 L 838.871094 221.621094 L 838.871094 224.3125 L 838.570312 224.3125 C 838.40625 223.546875 838.171875 223.035156 837.859375 222.78125 C 837.554688 222.527344 836.886719 222.402344 835.859375 222.402344 L 831.203125 222.402344 L 831.203125 229.3125 L 835.722656 229.3125 C 836.335938 229.3125 836.757812 229.203125 836.980469 228.980469 C 837.207031 228.765625 837.371094 228.34375 837.46875 227.730469 L 837.949219 227.730469 L 837.949219 231.652344 L 837.46875 231.652344 C 837.296875 230.964844 837.082031 230.53125 836.835938 230.359375 C 836.585938 230.183594 836.046875 230.09375 835.207031 230.09375 L 831.207031 230.09375 L 831.207031 235.871094 C 831.207031 236.28125 831.296875 236.558594 831.476562 236.726562 C 831.65625 236.890625 831.957031 236.976562 832.390625 236.976562 L 835.207031 236.976562 C 836.21875 236.976562 836.917969 236.917969 837.304688 236.8125 C 837.691406 236.703125 838.015625 236.496094 838.277344 236.195312 C 838.546875 235.898438 838.832031 235.414062 839.132812 234.746094 L 839.613281 234.746094 L 838.867188 237.753906 L 827.238281 237.753906 L 827.238281 237.292969 C 827.964844 237.292969 828.449219 237.105469 828.699219 236.734375 C 828.949219 236.359375 829.070312 235.707031 829.070312 234.757812 L 829.070312 224.660156 C 829.074219 223.675781 828.949219 223.003906 828.6875 222.640625 Z M 840.648438 190.886719 L 840.332031 190.886719 C 840.125 190 839.769531 189.390625 839.25 189.0625 C 838.734375 188.742188 837.953125 188.578125 836.917969 188.578125 L 834.46875 188.578125 L 834.46875 200.992188 C 834.46875 201.964844 834.589844 202.621094 834.824219 202.960938 C 835.0625 203.300781 835.527344 203.46875 836.214844 203.46875 L 836.214844 203.9375 L 830.503906 203.9375 L 830.503906 203.46875 C 831.214844 203.46875 831.695312 203.277344 831.953125 202.882812 C 832.207031 202.492188 832.335938 201.832031 832.335938 200.90625 L 832.335938 188.574219 L 829.992188 188.574219 C 828.875 188.574219 828.0625 188.753906 827.554688 189.109375 C 827.042969 189.46875 826.753906 190.0625 826.695312 190.882812 L 826.214844 190.882812 L 826.214844 187.1875 L 826.695312 187.1875 C 827.128906 187.589844 827.933594 187.789062 829.113281 187.789062 L 837.578125 187.789062 C 838.796875 187.789062 839.652344 187.589844 840.140625 187.1875 L 840.648438 187.1875 Z M 825.058594 135.820312 C 825.769531 135.820312 826.25 135.628906 826.507812 135.25 C 826.765625 134.875 826.894531 134.207031 826.894531 133.257812 L 826.894531 123.1875 C 826.894531 122.199219 826.761719 121.519531 826.5 121.15625 C 826.234375 120.800781 825.757812 120.613281 825.058594 120.613281 L 825.058594 120.148438 L 830.894531 120.148438 L 830.894531 120.613281 C 830.1875 120.613281 829.699219 120.808594 829.429688 121.199219 C 829.160156 121.585938 829.023438 122.25 829.023438 123.183594 L 829.023438 127.785156 L 837.8125 127.785156 L 837.8125 123.183594 C 837.8125 122.195312 837.691406 121.515625 837.4375 121.152344 C 837.183594 120.796875 836.710938 120.609375 836.011719 120.609375 L 836.011719 120.144531 L 841.789062 120.144531 L 841.789062 120.609375 C 841.105469 120.609375 840.628906 120.796875 840.359375 121.175781 C 840.09375 121.550781 839.957031 122.21875 839.957031 123.183594 L 839.957031 133.253906 C 839.957031 134.222656 840.09375 134.886719 840.359375 135.261719 C 840.628906 135.628906 841.105469 135.816406 841.789062 135.816406 L 841.789062 136.285156 L 836.019531 136.285156 L 836.019531 135.816406 C 836.734375 135.816406 837.214844 135.632812 837.457031 135.261719 C 837.703125 134.886719 837.824219 134.214844 837.824219 133.253906 L 837.824219 128.566406 L 829.03125 128.566406 L 829.03125 133.253906 C 829.03125 134.210938 829.164062 134.878906 829.4375 135.25 C 829.703125 135.628906 830.195312 135.816406 830.902344 135.816406 L 830.902344 136.285156 L 825.066406 136.285156 L 825.066406 135.820312 Z M 827.300781 155.972656 C 828.953125 154.375 831.007812 153.570312 833.480469 153.570312 C 835.871094 153.570312 837.898438 154.382812 839.558594 156.007812 C 841.214844 157.632812 842.042969 159.617188 842.042969 161.96875 C 842.042969 164.359375 841.207031 166.386719 839.535156 168.035156 C 837.859375 169.691406 835.824219 170.515625 833.410156 170.515625 C 831.011719 170.515625 828.976562 169.691406 827.316406 168.035156 C 825.652344 166.382812 824.820312 164.359375 824.820312 161.96875 C 824.820312 159.574219 825.648438 157.574219 827.300781 155.972656 Z M 747.292969 98.253906 C 747.292969 93.746094 750.949219 90.089844 755.464844 90.089844 L 772.375 90.089844 C 776.886719 90.089844 780.542969 93.746094 780.542969 98.253906 L 780.542969 121.09375 L 747.296875 121.09375 L 747.296875 98.253906 Z M 690.800781 98.253906 C 690.800781 93.746094 694.453125 90.089844 698.964844 90.089844 L 715.878906 90.089844 C 720.386719 90.089844 724.042969 93.746094 724.042969 98.253906 L 724.042969 121.09375 L 690.800781 121.09375 Z M 690.800781 154.75 C 690.800781 150.238281 694.453125 146.589844 698.964844 146.589844 L 715.878906 146.589844 C 720.386719 146.589844 724.042969 150.238281 724.042969 154.75 L 724.042969 177.585938 L 690.800781 177.585938 Z M 690.800781 211.242188 C 690.800781 206.734375 694.453125 203.078125 698.964844 203.078125 L 715.878906 203.078125 C 720.386719 203.078125 724.042969 206.734375 724.042969 211.242188 L 724.042969 234.082031 L 690.800781 234.082031 Z M 690.800781 267.738281 C 690.800781 263.226562 694.453125 259.578125 698.964844 259.578125 L 715.878906 259.578125 C 720.386719 259.578125 724.042969 263.226562 724.042969 267.738281 L 724.042969 290.578125 L 690.800781 290.578125 Z M 667.546875 290.578125 L 634.304688 290.578125 L 634.304688 267.738281 C 634.304688 263.226562 637.960938 259.578125 642.46875 259.578125 L 659.382812 259.578125 C 663.894531 259.578125 667.546875 263.226562 667.546875 267.738281 Z M 667.546875 234.082031 L 634.304688 234.082031 L 634.304688 211.242188 C 634.304688 206.734375 637.960938 203.078125 642.46875 203.078125 L 659.382812 203.078125 C 663.894531 203.078125 667.546875 206.734375 667.546875 211.242188 Z M 667.546875 177.585938 L 634.304688 177.585938 L 634.304688 154.75 C 634.304688 150.238281 637.960938 146.589844 642.46875 146.589844 L 659.382812 146.589844 C 663.894531 146.589844 667.546875 150.238281 667.546875 154.75 Z M 667.546875 121.09375 L 634.304688 121.09375 L 634.304688 98.253906 C 634.304688 93.746094 637.960938 90.089844 642.46875 90.089844 L 659.382812 90.089844 C 663.894531 90.089844 667.546875 93.746094 667.546875 98.253906 Z M 733.542969 391.800781 L 681.296875 391.800781 L 681.296875 322.796875 L 733.542969 322.796875 Z M 780.539062 274.527344 L 780.539062 290.574219 L 747.292969 290.574219 L 747.292969 267.734375 C 747.292969 263.222656 750.949219 259.574219 755.464844 259.574219 L 772.375 259.574219 C 775.574219 259.574219 778.34375 261.417969 779.683594 264.089844 C 780.234375 265.1875 780.542969 266.425781 780.542969 267.734375 L 780.542969 274.527344 Z M 780.539062 234.082031 L 747.292969 234.082031 L 747.292969 211.242188 C 747.292969 206.734375 750.949219 203.078125 755.464844 203.078125 L 772.375 203.078125 C 776.886719 203.078125 780.542969 206.734375 780.542969 211.242188 L 780.542969 234.082031 Z M 780.539062 177.585938 L 747.292969 177.585938 L 747.292969 154.75 C 747.292969 150.238281 750.949219 146.589844 755.464844 146.589844 L 772.375 146.589844 C 776.886719 146.589844 780.542969 150.238281 780.542969 154.75 L 780.542969 177.585938 Z M 796.082031 264.089844 L 796.082031 127.640625 L 810.128906 127.640625 L 810.128906 264.09375 L 796.082031 264.09375 Z M 796.082031 264.089844 " fill-opacity="1" fill-rule="nonzero"/></g><g fill="#e8e8e8" fill-opacity="1"><g transform="translate(193.254078, 635.400026)"><g><path d="M 107.46875 -176.921875 L 36.953125 -176.921875 L 36.953125 -172.734375 L 51.109375 -172.734375 L 51.109375 -11.015625 C 51.109375 -6.460938 50.890625 -2.265625 50.453125 1.578125 C 50.015625 5.421875 49.140625 8.78125 47.828125 11.65625 C 46.523438 14.539062 44.734375 16.8125 42.453125 18.46875 C 40.179688 20.132812 37.125 20.96875 33.28125 20.96875 C 29.09375 20.96875 25.554688 20.484375 22.671875 19.515625 C 19.785156 18.554688 18.34375 17.726562 18.34375 17.03125 C 18.34375 16.332031 18.867188 15.984375 19.921875 15.984375 C 25.515625 15.984375 29.75 14.28125 32.625 10.875 C 35.507812 7.46875 36.953125 3.664062 36.953125 -0.53125 C 36.953125 -4.71875 35.46875 -8.601562 32.5 -12.1875 C 29.53125 -15.769531 25.078125 -17.5625 19.140625 -17.5625 C 13.546875 -17.5625 9.304688 -15.8125 6.421875 -12.3125 C 3.535156 -8.820312 2.09375 -4.71875 2.09375 0 C 2.09375 3.144531 2.703125 6.242188 3.921875 9.296875 C 5.148438 12.359375 7.070312 15.113281 9.6875 17.5625 C 12.3125 20.007812 15.632812 21.972656 19.65625 23.453125 C 23.675781 24.941406 28.484375 25.6875 34.078125 25.6875 C 53.117188 25.6875 67.75 20.53125 77.96875 10.21875 C 88.195312 -0.0820312 93.3125 -15.894531 93.3125 -37.21875 L 93.3125 -172.734375 L 107.46875 -172.734375 Z M 107.46875 -176.921875 "/></g></g></g><g fill="#e8e8e8" fill-opacity="1"><g transform="translate(296.787072, 635.400026)"><g><path d="M 60.28125 -114.546875 C 48.75 -114.546875 39.222656 -112.796875 31.703125 -109.296875 C 24.191406 -105.804688 20.4375 -100.566406 20.4375 -93.578125 C 20.4375 -88.503906 21.878906 -84.875 24.765625 -82.6875 C 27.648438 -80.507812 30.925781 -79.421875 34.59375 -79.421875 C 37.5625 -79.421875 39.960938 -79.898438 41.796875 -80.859375 C 43.640625 -81.816406 45.082031 -82.953125 46.125 -84.265625 C 47.175781 -85.578125 47.875 -87.019531 48.21875 -88.59375 C 48.570312 -90.164062 48.75 -91.476562 48.75 -92.53125 C 48.75 -96.894531 47.085938 -100.125 43.765625 -102.21875 C 42.546875 -102.914062 41.9375 -103.789062 41.9375 -104.84375 C 41.9375 -106.238281 43.242188 -107.414062 45.859375 -108.375 C 48.484375 -109.34375 53.378906 -109.828125 60.546875 -109.828125 C 67.015625 -109.828125 71.207031 -108.078125 73.125 -104.578125 C 75.050781 -101.085938 76.015625 -96.195312 76.015625 -89.90625 L 76.015625 -68.9375 L 47.703125 -68.9375 C 40.535156 -68.9375 34.285156 -67.84375 28.953125 -65.65625 C 23.628906 -63.46875 19.175781 -60.625 15.59375 -57.125 C 12.007812 -53.632812 9.34375 -49.660156 7.59375 -45.203125 C 5.851562 -40.753906 4.984375 -36.257812 4.984375 -31.71875 C 4.984375 -27 5.8125 -22.5 7.46875 -18.21875 C 9.125 -13.9375 11.613281 -10.222656 14.9375 -7.078125 C 18.257812 -3.929688 22.410156 -1.441406 27.390625 0.390625 C 32.367188 2.222656 38.179688 3.140625 44.828125 3.140625 C 49.191406 3.140625 53.078125 2.703125 56.484375 1.828125 C 59.890625 0.960938 62.898438 -0.164062 65.515625 -1.5625 C 68.140625 -2.96875 70.457031 -4.457031 72.46875 -6.03125 C 74.476562 -7.601562 76.179688 -9.085938 77.578125 -10.484375 C 79.148438 -6.816406 82.296875 -3.628906 87.015625 -0.921875 C 91.734375 1.785156 98.550781 3.140625 107.46875 3.140625 C 113.757812 3.140625 118.738281 2.441406 122.40625 1.046875 C 126.070312 -0.347656 128.910156 -2.003906 130.921875 -3.921875 C 132.929688 -5.847656 134.238281 -7.945312 134.84375 -10.21875 C 135.457031 -12.488281 135.765625 -14.585938 135.765625 -16.515625 C 135.765625 -17.910156 135.242188 -18.609375 134.203125 -18.609375 C 132.972656 -18.609375 132.273438 -17.820312 132.109375 -16.25 C 131.578125 -13.625 130.742188 -11.347656 129.609375 -9.421875 C 128.472656 -7.503906 126.421875 -6.546875 123.453125 -6.546875 C 119.960938 -6.546875 117.734375 -7.722656 116.765625 -10.078125 C 115.804688 -12.441406 115.328125 -15.722656 115.328125 -19.921875 L 115.328125 -74.96875 C 115.328125 -82.300781 114.320312 -88.5 112.3125 -93.5625 C 110.300781 -98.632812 107.066406 -102.742188 102.609375 -105.890625 C 98.160156 -109.035156 92.484375 -111.265625 85.578125 -112.578125 C 78.671875 -113.890625 70.238281 -114.546875 60.28125 -114.546875 Z M 76.015625 -64.21875 L 76.015625 -18.34375 C 76.015625 -16.769531 75.269531 -15.15625 73.78125 -13.5 C 72.300781 -11.84375 70.507812 -10.359375 68.40625 -9.046875 C 66.3125 -7.734375 64.210938 -6.640625 62.109375 -5.765625 C 60.015625 -4.890625 58.445312 -4.453125 57.40625 -4.453125 C 53.03125 -4.453125 49.925781 -6.59375 48.09375 -10.875 C 46.257812 -15.15625 45.34375 -22.191406 45.34375 -31.984375 C 45.34375 -41.585938 46.867188 -49.359375 49.921875 -55.296875 C 52.984375 -61.242188 58.097656 -64.21875 65.265625 -64.21875 Z M 76.015625 -64.21875 "/></g></g></g><g fill="#e8e8e8" fill-opacity="1"><g transform="translate(427.317278, 635.400026)"><g><path d="M 112.4375 -103.015625 C 112.4375 -100.910156 112.175781 -99.25 111.65625 -98.03125 L 89.640625 -42.46875 L 59.5 -108.515625 L 73.65625 -108.515625 L 73.65625 -112.703125 L 5.234375 -112.703125 L 5.234375 -108.515625 L 19.390625 -108.515625 L 68.40625 0 L 77.328125 0 L 116.640625 -98.296875 C 118.210938 -102.140625 120.265625 -104.800781 122.796875 -106.28125 C 125.328125 -107.769531 128.601562 -108.515625 132.625 -108.515625 L 132.625 -112.703125 L 101.703125 -112.703125 L 101.703125 -108.515625 C 105.546875 -108.515625 108.296875 -107.945312 109.953125 -106.8125 C 111.609375 -105.675781 112.4375 -104.410156 112.4375 -103.015625 Z M 112.4375 -103.015625 "/></g></g></g><g fill="#e8e8e8" fill-opacity="1"><g transform="translate(550.77057, 635.400026)"><g><path d="M 60.28125 -114.546875 C 48.75 -114.546875 39.222656 -112.796875 31.703125 -109.296875 C 24.191406 -105.804688 20.4375 -100.566406 20.4375 -93.578125 C 20.4375 -88.503906 21.878906 -84.875 24.765625 -82.6875 C 27.648438 -80.507812 30.925781 -79.421875 34.59375 -79.421875 C 37.5625 -79.421875 39.960938 -79.898438 41.796875 -80.859375 C 43.640625 -81.816406 45.082031 -82.953125 46.125 -84.265625 C 47.175781 -85.578125 47.875 -87.019531 48.21875 -88.59375 C 48.570312 -90.164062 48.75 -91.476562 48.75 -92.53125 C 48.75 -96.894531 47.085938 -100.125 43.765625 -102.21875 C 42.546875 -102.914062 41.9375 -103.789062 41.9375 -104.84375 C 41.9375 -106.238281 43.242188 -107.414062 45.859375 -108.375 C 48.484375 -109.34375 53.378906 -109.828125 60.546875 -109.828125 C 67.015625 -109.828125 71.207031 -108.078125 73.125 -104.578125 C 75.050781 -101.085938 76.015625 -96.195312 76.015625 -89.90625 L 76.015625 -68.9375 L 47.703125 -68.9375 C 40.535156 -68.9375 34.285156 -67.84375 28.953125 -65.65625 C 23.628906 -63.46875 19.175781 -60.625 15.59375 -57.125 C 12.007812 -53.632812 9.34375 -49.660156 7.59375 -45.203125 C 5.851562 -40.753906 4.984375 -36.257812 4.984375 -31.71875 C 4.984375 -27 5.8125 -22.5 7.46875 -18.21875 C 9.125 -13.9375 11.613281 -10.222656 14.9375 -7.078125 C 18.257812 -3.929688 22.410156 -1.441406 27.390625 0.390625 C 32.367188 2.222656 38.179688 3.140625 44.828125 3.140625 C 49.191406 3.140625 53.078125 2.703125 56.484375 1.828125 C 59.890625 0.960938 62.898438 -0.164062 65.515625 -1.5625 C 68.140625 -2.96875 70.457031 -4.457031 72.46875 -6.03125 C 74.476562 -7.601562 76.179688 -9.085938 77.578125 -10.484375 C 79.148438 -6.816406 82.296875 -3.628906 87.015625 -0.921875 C 91.734375 1.785156 98.550781 3.140625 107.46875 3.140625 C 113.757812 3.140625 118.738281 2.441406 122.40625 1.046875 C 126.070312 -0.347656 128.910156 -2.003906 130.921875 -3.921875 C 132.929688 -5.847656 134.238281 -7.945312 134.84375 -10.21875 C 135.457031 -12.488281 135.765625 -14.585938 135.765625 -16.515625 C 135.765625 -17.910156 135.242188 -18.609375 134.203125 -18.609375 C 132.972656 -18.609375 132.273438 -17.820312 132.109375 -16.25 C 131.578125 -13.625 130.742188 -11.347656 129.609375 -9.421875 C 128.472656 -7.503906 126.421875 -6.546875 123.453125 -6.546875 C 119.960938 -6.546875 117.734375 -7.722656 116.765625 -10.078125 C 115.804688 -12.441406 115.328125 -15.722656 115.328125 -19.921875 L 115.328125 -74.96875 C 115.328125 -82.300781 114.320312 -88.5 112.3125 -93.5625 C 110.300781 -98.632812 107.066406 -102.742188 102.609375 -105.890625 C 98.160156 -109.035156 92.484375 -111.265625 85.578125 -112.578125 C 78.671875 -113.890625 70.238281 -114.546875 60.28125 -114.546875 Z M 76.015625 -64.21875 L 76.015625 -18.34375 C 76.015625 -16.769531 75.269531 -15.15625 73.78125 -13.5 C 72.300781 -11.84375 70.507812 -10.359375 68.40625 -9.046875 C 66.3125 -7.734375 64.210938 -6.640625 62.109375 -5.765625 C 60.015625 -4.890625 58.445312 -4.453125 57.40625 -4.453125 C 53.03125 -4.453125 49.925781 -6.59375 48.09375 -10.875 C 46.257812 -15.15625 45.34375 -22.191406 45.34375 -31.984375 C 45.34375 -41.585938 46.867188 -49.359375 49.921875 -55.296875 C 52.984375 -61.242188 58.097656 -64.21875 65.265625 -64.21875 Z M 76.015625 -64.21875 "/></g></g></g><g fill="#e8e8e8" fill-opacity="1"><g transform="translate(748.626641, 635.400026)"><g><path d="M 107.46875 -176.921875 L 36.953125 -176.921875 L 36.953125 -172.734375 L 51.109375 -172.734375 L 51.109375 -11.015625 C 51.109375 -6.460938 50.890625 -2.265625 50.453125 1.578125 C 50.015625 5.421875 49.140625 8.78125 47.828125 11.65625 C 46.523438 14.539062 44.734375 16.8125 42.453125 18.46875 C 40.179688 20.132812 37.125 20.96875 33.28125 20.96875 C 29.09375 20.96875 25.554688 20.484375 22.671875 19.515625 C 19.785156 18.554688 18.34375 17.726562 18.34375 17.03125 C 18.34375 16.332031 18.867188 15.984375 19.921875 15.984375 C 25.515625 15.984375 29.75 14.28125 32.625 10.875 C 35.507812 7.46875 36.953125 3.664062 36.953125 -0.53125 C 36.953125 -4.71875 35.46875 -8.601562 32.5 -12.1875 C 29.53125 -15.769531 25.078125 -17.5625 19.140625 -17.5625 C 13.546875 -17.5625 9.304688 -15.8125 6.421875 -12.3125 C 3.535156 -8.820312 2.09375 -4.71875 2.09375 0 C 2.09375 3.144531 2.703125 6.242188 3.921875 9.296875 C 5.148438 12.359375 7.070312 15.113281 9.6875 17.5625 C 12.3125 20.007812 15.632812 21.972656 19.65625 23.453125 C 23.675781 24.941406 28.484375 25.6875 34.078125 25.6875 C 53.117188 25.6875 67.75 20.53125 77.96875 10.21875 C 88.195312 -0.0820312 93.3125 -15.894531 93.3125 -37.21875 L 93.3125 -172.734375 L 107.46875 -172.734375 Z M 107.46875 -176.921875 "/></g></g></g><g fill="#e8e8e8" fill-opacity="1"><g transform="translate(852.159635, 635.400026)"><g><path d="M 4.1875 -55.828125 C 4.1875 -48.492188 5.410156 -41.285156 7.859375 -34.203125 C 10.304688 -27.128906 13.929688 -20.835938 18.734375 -15.328125 C 23.546875 -9.828125 29.664062 -5.375 37.09375 -1.96875 C 44.519531 1.4375 53.210938 3.140625 63.171875 3.140625 C 73.128906 3.140625 81.820312 1.4375 89.25 -1.96875 C 96.675781 -5.375 102.789062 -9.828125 107.59375 -15.328125 C 112.394531 -20.835938 116.019531 -27.128906 118.46875 -34.203125 C 120.914062 -41.285156 122.140625 -48.492188 122.140625 -55.828125 C 122.140625 -63.171875 120.914062 -70.378906 118.46875 -77.453125 C 116.019531 -84.523438 112.394531 -90.8125 107.59375 -96.3125 C 102.789062 -101.820312 96.675781 -106.28125 89.25 -109.6875 C 81.820312 -113.09375 73.128906 -114.796875 63.171875 -114.796875 C 53.210938 -114.796875 44.519531 -113.09375 37.09375 -109.6875 C 29.664062 -106.28125 23.546875 -101.820312 18.734375 -96.3125 C 13.929688 -90.8125 10.304688 -84.523438 7.859375 -77.453125 C 5.410156 -70.378906 4.1875 -63.171875 4.1875 -55.828125 Z M 44.828125 -65.53125 C 44.828125 -72.519531 45 -78.804688 45.34375 -84.390625 C 45.695312 -89.984375 46.484375 -94.660156 47.703125 -98.421875 C 48.921875 -102.179688 50.753906 -105.0625 53.203125 -107.0625 C 55.648438 -109.070312 58.972656 -110.078125 63.171875 -110.078125 C 67.359375 -110.078125 70.675781 -109.070312 73.125 -107.0625 C 75.570312 -105.0625 77.40625 -102.179688 78.625 -98.421875 C 79.851562 -94.660156 80.640625 -89.984375 80.984375 -84.390625 C 81.335938 -78.804688 81.515625 -72.519531 81.515625 -65.53125 L 81.515625 -45.078125 C 81.515625 -37.921875 81.335938 -31.628906 80.984375 -26.203125 C 80.640625 -20.785156 79.851562 -16.242188 78.625 -12.578125 C 77.40625 -8.910156 75.570312 -6.160156 73.125 -4.328125 C 70.675781 -2.492188 67.359375 -1.578125 63.171875 -1.578125 C 58.972656 -1.578125 55.648438 -2.492188 53.203125 -4.328125 C 50.753906 -6.160156 48.921875 -8.910156 47.703125 -12.578125 C 46.484375 -16.242188 45.695312 -20.785156 45.34375 -26.203125 C 45 -31.628906 44.828125 -37.921875 44.828125 -45.078125 Z M 44.828125 -65.53125 "/></g></g></g><g fill="#e8e8e8" fill-opacity="1"><g transform="translate(968.011748, 635.400026)"><g><path d="M 83.34375 -1.578125 L 120.3125 -98.296875 C 121.707031 -102.140625 123.800781 -104.800781 126.59375 -106.28125 C 129.394531 -107.769531 132.539062 -108.515625 136.03125 -108.515625 L 136.03125 -112.703125 L 105.109375 -112.703125 L 105.109375 -108.515625 C 109.296875 -108.515625 112.175781 -107.859375 113.75 -106.546875 C 115.320312 -105.234375 116.109375 -103.878906 116.109375 -102.484375 C 116.109375 -100.734375 115.847656 -99.335938 115.328125 -98.296875 L 92 -37.21875 L 58.1875 -108.515625 L 72.34375 -108.515625 L 72.34375 -112.703125 L 4.71875 -112.703125 L 4.71875 -108.515625 L 18.609375 -108.515625 L 74.96875 8.90625 C 74.09375 12.582031 73.039062 16.425781 71.8125 20.4375 C 70.59375 24.457031 68.847656 29.703125 66.578125 36.171875 C 63.773438 44.210938 60.671875 50.722656 57.265625 55.703125 C 53.859375 60.679688 48.925781 63.171875 42.46875 63.171875 C 44.207031 61.941406 45.644531 60.410156 46.78125 58.578125 C 47.914062 56.742188 48.484375 53.992188 48.484375 50.328125 C 48.484375 46.304688 47.085938 42.765625 44.296875 39.703125 C 41.503906 36.648438 37.660156 35.125 32.765625 35.125 C 27.867188 35.125 23.800781 36.609375 20.5625 39.578125 C 17.332031 42.546875 15.71875 46.21875 15.71875 50.59375 C 15.71875 56.53125 17.816406 60.984375 22.015625 63.953125 C 26.210938 66.921875 30.84375 68.40625 35.90625 68.40625 C 40.976562 68.40625 45.257812 67.925781 48.75 66.96875 C 52.25 66.007812 55.21875 64.4375 57.65625 62.25 C 60.101562 60.0625 62.285156 57.21875 64.203125 53.71875 C 66.128906 50.226562 68.054688 45.863281 69.984375 40.625 C 71.203125 37.132812 72.421875 33.421875 73.640625 29.484375 C 74.867188 25.554688 76.050781 21.710938 77.1875 17.953125 C 78.320312 14.191406 79.414062 10.609375 80.46875 7.203125 C 81.519531 3.796875 82.476562 0.867188 83.34375 -1.578125 Z M 83.34375 -1.578125 "/></g></g></g><g fill="#e8e8e8" fill-opacity="1"><g transform="translate(1097.231438, 635.400026)"><g><path d="M 60.28125 -114.546875 C 48.75 -114.546875 39.222656 -112.796875 31.703125 -109.296875 C 24.191406 -105.804688 20.4375 -100.566406 20.4375 -93.578125 C 20.4375 -88.503906 21.878906 -84.875 24.765625 -82.6875 C 27.648438 -80.507812 30.925781 -79.421875 34.59375 -79.421875 C 37.5625 -79.421875 39.960938 -79.898438 41.796875 -80.859375 C 43.640625 -81.816406 45.082031 -82.953125 46.125 -84.265625 C 47.175781 -85.578125 47.875 -87.019531 48.21875 -88.59375 C 48.570312 -90.164062 48.75 -91.476562 48.75 -92.53125 C 48.75 -96.894531 47.085938 -100.125 43.765625 -102.21875 C 42.546875 -102.914062 41.9375 -103.789062 41.9375 -104.84375 C 41.9375 -106.238281 43.242188 -107.414062 45.859375 -108.375 C 48.484375 -109.34375 53.378906 -109.828125 60.546875 -109.828125 C 67.015625 -109.828125 71.207031 -108.078125 73.125 -104.578125 C 75.050781 -101.085938 76.015625 -96.195312 76.015625 -89.90625 L 76.015625 -68.9375 L 47.703125 -68.9375 C 40.535156 -68.9375 34.285156 -67.84375 28.953125 -65.65625 C 23.628906 -63.46875 19.175781 -60.625 15.59375 -57.125 C 12.007812 -53.632812 9.34375 -49.660156 7.59375 -45.203125 C 5.851562 -40.753906 4.984375 -36.257812 4.984375 -31.71875 C 4.984375 -27 5.8125 -22.5 7.46875 -18.21875 C 9.125 -13.9375 11.613281 -10.222656 14.9375 -7.078125 C 18.257812 -3.929688 22.410156 -1.441406 27.390625 0.390625 C 32.367188 2.222656 38.179688 3.140625 44.828125 3.140625 C 49.191406 3.140625 53.078125 2.703125 56.484375 1.828125 C 59.890625 0.960938 62.898438 -0.164062 65.515625 -1.5625 C 68.140625 -2.96875 70.457031 -4.457031 72.46875 -6.03125 C 74.476562 -7.601562 76.179688 -9.085938 77.578125 -10.484375 C 79.148438 -6.816406 82.296875 -3.628906 87.015625 -0.921875 C 91.734375 1.785156 98.550781 3.140625 107.46875 3.140625 C 113.757812 3.140625 118.738281 2.441406 122.40625 1.046875 C 126.070312 -0.347656 128.910156 -2.003906 130.921875 -3.921875 C 132.929688 -5.847656 134.238281 -7.945312 134.84375 -10.21875 C 135.457031 -12.488281 135.765625 -14.585938 135.765625 -16.515625 C 135.765625 -17.910156 135.242188 -18.609375 134.203125 -18.609375 C 132.972656 -18.609375 132.273438 -17.820312 132.109375 -16.25 C 131.578125 -13.625 130.742188 -11.347656 129.609375 -9.421875 C 128.472656 -7.503906 126.421875 -6.546875 123.453125 -6.546875 C 119.960938 -6.546875 117.734375 -7.722656 116.765625 -10.078125 C 115.804688 -12.441406 115.328125 -15.722656 115.328125 -19.921875 L 115.328125 -74.96875 C 115.328125 -82.300781 114.320312 -88.5 112.3125 -93.5625 C 110.300781 -98.632812 107.066406 -102.742188 102.609375 -105.890625 C 98.160156 -109.035156 92.484375 -111.265625 85.578125 -112.578125 C 78.671875 -113.890625 70.238281 -114.546875 60.28125 -114.546875 Z M 76.015625 -64.21875 L 76.015625 -18.34375 C 76.015625 -16.769531 75.269531 -15.15625 73.78125 -13.5 C 72.300781 -11.84375 70.507812 -10.359375 68.40625 -9.046875 C 66.3125 -7.734375 64.210938 -6.640625 62.109375 -5.765625 C 60.015625 -4.890625 58.445312 -4.453125 57.40625 -4.453125 C 53.03125 -4.453125 49.925781 -6.59375 48.09375 -10.875 C 46.257812 -15.15625 45.34375 -22.191406 45.34375 -31.984375 C 45.34375 -41.585938 46.867188 -49.359375 49.921875 -55.296875 C 52.984375 -61.242188 58.097656 -64.21875 65.265625 -64.21875 Z M 76.015625 -64.21875 "/></g></g></g><path stroke-linecap="butt" transform="matrix(0.75, 0, 0, 0.75, 35.827402, 405)" fill="none" stroke-linejoin="miter" d="M 0.00096408 15.000001 L 400.292651 15.000001 " stroke="#e8e8e8" stroke-width="30" stroke-opacity="1" stroke-miterlimit="4"/><g clip-path="url(#72b89714e0)"><path fill="#e8e8e8" d="M 335.761719 405.570312 L 312.460938 405.570312 C 318.839844 279.457031 367.855469 174.5625 468.769531 98.777344 C 605.675781 -4.222656 754.75 -18.957031 906.578125 60.691406 C 1042.945312 132.214844 1111.582031 250.921875 1121.535156 405.132812 L 1097.28125 405.132812 C 1091.65625 285.953125 1042.894531 188.128906 948.339844 114.738281 C 873.609375 56.8125 787.835938 31.632812 693.5 36.753906 C 505.296875 47.09375 339.320312 203.753906 335.761719 405.570312 Z M 335.761719 405.570312 " fill-opacity="1" fill-rule="nonzero"/></g><path stroke-linecap="butt" transform="matrix(0, 0.75, -0.75, 0, 47.077405, 405)" fill="none" stroke-linejoin="miter" d="M 0.0000005 14.999041 L 432.000022 14.999041 " stroke="#e8e8e8" stroke-width="30" stroke-opacity="1" stroke-miterlimit="4"/><path stroke-linecap="butt" transform="matrix(0.75, 0.000000000000000271, -0.000000000000000271, 0.75, 24.577403, 706.499984)" fill="none" stroke-linejoin="miter" d="M 0.000963326 15.000021 L 628.146828 15.000021 " stroke="#e8e8e8" stroke-width="30" stroke-opacity="1" stroke-miterlimit="4"/><path stroke-linecap="butt" transform="matrix(0.000000001309, 0.75, -0.75, 0.000000001309, 1416.466351, 416.254559)" fill="none" stroke-linejoin="miter" d="M -0.000870438 15.00201 L 417.134567 15.002011 " stroke="#e8e8e8" stroke-width="30" stroke-opacity="1" stroke-miterlimit="4"/><path stroke-linecap="butt" transform="matrix(0.75, 0, 0, 0.75, 1097.755847, 405)" fill="none" stroke-linejoin="miter" d="M -0.00258766 15.000001 L 424.955767 15.000001 " stroke="#e8e8e8" stroke-width="30" stroke-opacity="1" stroke-miterlimit="4"/><path stroke-linecap="butt" transform="matrix(0.75, 0.000000000000000271, -0.000000000000000271, 0.75, 945.361951, 706.499984)" fill="none" stroke-linejoin="miter" d="M 0.00177412 15.000021 L 628.147639 15.000021 " stroke="#e8e8e8" stroke-width="30" stroke-opacity="1" stroke-miterlimit="4"/><path stroke-linecap="butt" transform="matrix(0.75, 0, 0, 0.75, 470.617423, 743.999983)" fill="none" stroke-linejoin="miter" d="M -0.000313395 15.000024 L 663.020553 15.000024 " stroke="#e8e8e8" stroke-width="30" stroke-opacity="1" stroke-miterlimit="4"/><path stroke-linecap="butt" transform="matrix(0.75, 0.000000000000000326, -0.000000000000000326, 0.75, 520.664572, 780.749981)" fill="none" stroke-linejoin="miter" d="M -0.000679371 15.000026 L 523.561847 15.000026 " stroke="#e8e8e8" stroke-width="30" stroke-opacity="1" stroke-miterlimit="4"/><g fill="#e8e8e8" fill-opacity="1"><g transform="translate(633.299158, 729.749983)"><g><path d="M 16.34375 -24.546875 L 15.40625 -23.140625 C 14.90625 -23.484375 14.234375 -23.832031 13.390625 -24.1875 C 12.546875 -24.550781 11.476562 -24.734375 10.1875 -24.734375 C 8.863281 -24.734375 7.703125 -24.5 6.703125 -24.03125 C 5.710938 -23.5625 4.878906 -22.953125 4.203125 -22.203125 C 3.535156 -21.460938 3.023438 -20.613281 2.671875 -19.65625 C 2.328125 -18.695312 2.15625 -17.738281 2.15625 -16.78125 C 2.15625 -15.070312 2.5625 -13.640625 3.375 -12.484375 C 4.195312 -11.335938 5.53125 -10.5 7.375 -9.96875 C 7.8125 -9.851562 8.28125 -9.734375 8.78125 -9.609375 C 9.289062 -9.492188 9.789062 -9.378906 10.28125 -9.265625 C 10.769531 -9.160156 11.21875 -9.054688 11.625 -8.953125 C 12.03125 -8.859375 12.34375 -8.78125 12.5625 -8.71875 C 13.6875 -8.40625 14.445312 -7.9375 14.84375 -7.3125 C 15.238281 -6.6875 15.4375 -5.867188 15.4375 -4.859375 C 15.4375 -4.378906 15.332031 -3.867188 15.125 -3.328125 C 14.925781 -2.785156 14.617188 -2.285156 14.203125 -1.828125 C 13.785156 -1.378906 13.242188 -1 12.578125 -0.6875 C 11.921875 -0.375 11.148438 -0.21875 10.265625 -0.21875 C 9.054688 -0.21875 8.023438 -0.429688 7.171875 -0.859375 C 6.328125 -1.296875 5.601562 -1.859375 5 -2.546875 C 4.40625 -3.242188 3.914062 -4.023438 3.53125 -4.890625 C 3.144531 -5.753906 2.832031 -6.617188 2.59375 -7.484375 C 2.5 -7.816406 2.390625 -7.984375 2.265625 -7.984375 C 2.191406 -7.984375 2.132812 -7.945312 2.09375 -7.875 C 2.0625 -7.8125 2.046875 -7.660156 2.046875 -7.421875 L 2.046875 -0.359375 C 2.046875 -0.210938 2.0625 -0.0820312 2.09375 0.03125 C 2.132812 0.15625 2.21875 0.21875 2.34375 0.21875 C 2.507812 0.21875 2.703125 0.0507812 2.921875 -0.28125 L 4.03125 -1.984375 C 4.269531 -1.742188 4.5625 -1.484375 4.90625 -1.203125 C 5.257812 -0.929688 5.679688 -0.675781 6.171875 -0.4375 C 6.660156 -0.195312 7.234375 0.00390625 7.890625 0.171875 C 8.554688 0.347656 9.347656 0.4375 10.265625 0.4375 C 11.679688 0.4375 12.914062 0.203125 13.96875 -0.265625 C 15.019531 -0.734375 15.894531 -1.351562 16.59375 -2.125 C 17.289062 -2.894531 17.8125 -3.769531 18.15625 -4.75 C 18.507812 -5.738281 18.6875 -6.75 18.6875 -7.78125 C 18.6875 -9.988281 18.140625 -11.769531 17.046875 -13.125 C 15.953125 -14.476562 14.335938 -15.359375 12.203125 -15.765625 C 11.671875 -15.859375 11.019531 -15.992188 10.25 -16.171875 C 9.488281 -16.359375 8.820312 -16.546875 8.25 -16.734375 C 7.5 -17.003906 6.960938 -17.429688 6.640625 -18.015625 C 6.316406 -18.609375 6.15625 -19.347656 6.15625 -20.234375 C 6.15625 -20.710938 6.238281 -21.1875 6.40625 -21.65625 C 6.570312 -22.125 6.820312 -22.535156 7.15625 -22.890625 C 7.5 -23.253906 7.921875 -23.539062 8.421875 -23.75 C 8.929688 -23.96875 9.519531 -24.078125 10.1875 -24.078125 C 10.738281 -24.078125 11.304688 -24 11.890625 -23.84375 C 12.484375 -23.6875 13.054688 -23.40625 13.609375 -23 C 14.160156 -22.59375 14.675781 -22.015625 15.15625 -21.265625 C 15.632812 -20.523438 16.03125 -19.582031 16.34375 -18.4375 C 16.414062 -18.09375 16.523438 -17.921875 16.671875 -17.921875 C 16.785156 -17.921875 16.847656 -17.972656 16.859375 -18.078125 C 16.878906 -18.191406 16.890625 -18.320312 16.890625 -18.46875 L 16.890625 -24.515625 C 16.890625 -24.753906 16.828125 -24.875 16.703125 -24.875 C 16.585938 -24.875 16.46875 -24.765625 16.34375 -24.546875 Z M 16.34375 -24.546875 "/></g></g></g><g fill="#e8e8e8" fill-opacity="1"><g transform="translate(651.911186, 729.749983)"><g><path d="M 8.3125 -0.578125 L 8.3125 -16.625 L 0.96875 -15.484375 L 0.96875 -14.875 L 2.921875 -15.1875 L 2.921875 -0.578125 L 0.96875 -0.578125 L 0.96875 0 L 10.265625 0 L 10.265625 -0.578125 Z M 8.390625 -20.84375 C 8.390625 -21.632812 8.113281 -22.304688 7.5625 -22.859375 C 7.007812 -23.410156 6.335938 -23.6875 5.546875 -23.6875 C 4.753906 -23.6875 4.082031 -23.410156 3.53125 -22.859375 C 2.976562 -22.304688 2.703125 -21.632812 2.703125 -20.84375 C 2.703125 -20.050781 2.976562 -19.378906 3.53125 -18.828125 C 4.082031 -18.273438 4.753906 -18 5.546875 -18 C 6.335938 -18 7.007812 -18.273438 7.5625 -18.828125 C 8.113281 -19.378906 8.390625 -20.050781 8.390625 -20.84375 Z M 8.390625 -20.84375 "/></g></g></g><g fill="#e8e8e8" fill-opacity="1"><g transform="translate(661.487199, 729.749983)"><g><path d="M 17.96875 -0.578125 L 17.96875 -10.765625 C 17.96875 -11.773438 17.816406 -12.613281 17.515625 -13.28125 C 17.210938 -13.957031 16.816406 -14.484375 16.328125 -14.859375 C 15.835938 -15.242188 15.257812 -15.515625 14.59375 -15.671875 C 13.9375 -15.828125 13.25 -15.90625 12.53125 -15.90625 C 11.90625 -15.90625 11.34375 -15.820312 10.84375 -15.65625 C 10.351562 -15.488281 9.925781 -15.269531 9.5625 -15 C 9.207031 -14.738281 8.898438 -14.425781 8.640625 -14.0625 C 8.378906 -13.707031 8.160156 -13.351562 7.984375 -13 L 7.984375 -16.34375 L 0.546875 -15.078125 L 0.546875 -14.46875 L 2.484375 -14.796875 L 2.484375 -0.578125 L 0.546875 -0.578125 L 0.546875 0 L 9.4375 0 L 9.4375 -0.578125 L 7.890625 -0.578125 L 7.890625 -10.46875 C 7.890625 -10.957031 7.988281 -11.457031 8.1875 -11.96875 C 8.394531 -12.488281 8.65625 -12.957031 8.96875 -13.375 C 9.28125 -13.789062 9.613281 -14.132812 9.96875 -14.40625 C 10.332031 -14.6875 10.679688 -14.828125 11.015625 -14.828125 C 11.691406 -14.828125 12.117188 -14.5625 12.296875 -14.03125 C 12.472656 -13.507812 12.5625 -12.695312 12.5625 -11.59375 L 12.5625 -0.578125 L 11.015625 -0.578125 L 11.015625 0 L 19.90625 0 L 19.90625 -0.578125 Z M 17.96875 -0.578125 "/></g></g></g><g fill="#e8e8e8" fill-opacity="1"><g transform="translate(680.315222, 729.749983)"><g><path d="M 9.109375 -15.125 C 10.046875 -15.125 10.796875 -15.003906 11.359375 -14.765625 C 11.921875 -14.523438 12.203125 -14.332031 12.203125 -14.1875 C 11.671875 -14.113281 11.21875 -13.882812 10.84375 -13.5 C 10.476562 -13.113281 10.296875 -12.609375 10.296875 -11.984375 C 10.296875 -11.429688 10.492188 -10.953125 10.890625 -10.546875 C 11.285156 -10.140625 11.832031 -9.9375 12.53125 -9.9375 C 13.269531 -9.9375 13.832031 -10.160156 14.21875 -10.609375 C 14.601562 -11.066406 14.796875 -11.609375 14.796875 -12.234375 C 14.796875 -12.597656 14.710938 -12.984375 14.546875 -13.390625 C 14.378906 -13.796875 14.070312 -14.175781 13.625 -14.53125 C 13.175781 -14.894531 12.550781 -15.191406 11.75 -15.421875 C 10.945312 -15.648438 9.910156 -15.765625 8.640625 -15.765625 C 7.347656 -15.765625 6.195312 -15.53125 5.1875 -15.0625 C 4.175781 -14.59375 3.316406 -13.976562 2.609375 -13.21875 C 1.898438 -12.46875 1.363281 -11.609375 1 -10.640625 C 0.644531 -9.671875 0.46875 -8.679688 0.46875 -7.671875 C 0.46875 -6.660156 0.632812 -5.664062 0.96875 -4.6875 C 1.300781 -3.71875 1.8125 -2.851562 2.5 -2.09375 C 3.1875 -1.34375 4.039062 -0.734375 5.0625 -0.265625 C 6.082031 0.203125 7.273438 0.4375 8.640625 0.4375 C 10.484375 0.4375 12.023438 -0.00390625 13.265625 -0.890625 C 14.503906 -1.785156 15.363281 -2.941406 15.84375 -4.359375 C 15.863281 -4.398438 15.875 -4.472656 15.875 -4.578125 C 15.875 -4.835938 15.765625 -4.96875 15.546875 -4.96875 C 15.378906 -4.96875 15.257812 -4.847656 15.1875 -4.609375 C 15 -4.035156 14.710938 -3.492188 14.328125 -2.984375 C 13.941406 -2.484375 13.484375 -2.035156 12.953125 -1.640625 C 12.429688 -1.242188 11.851562 -0.929688 11.21875 -0.703125 C 10.582031 -0.472656 9.925781 -0.359375 9.25 -0.359375 C 8.625 -0.359375 8.101562 -0.453125 7.6875 -0.640625 C 7.269531 -0.835938 6.925781 -1.160156 6.65625 -1.609375 C 6.394531 -2.066406 6.207031 -2.664062 6.09375 -3.40625 C 5.988281 -4.15625 5.9375 -5.097656 5.9375 -6.234375 L 5.9375 -9.109375 C 5.9375 -10.210938 5.988281 -11.140625 6.09375 -11.890625 C 6.207031 -12.648438 6.390625 -13.269531 6.640625 -13.75 C 6.890625 -14.226562 7.210938 -14.578125 7.609375 -14.796875 C 8.003906 -15.015625 8.503906 -15.125 9.109375 -15.125 Z M 9.109375 -15.125 "/></g></g></g><g fill="#e8e8e8" fill-opacity="1"><g transform="translate(694.931249, 729.749983)"><g><path d="M 16.890625 -8.890625 C 16.785156 -9.535156 16.582031 -10.253906 16.28125 -11.046875 C 15.988281 -11.835938 15.535156 -12.582031 14.921875 -13.28125 C 14.304688 -13.976562 13.492188 -14.566406 12.484375 -15.046875 C 11.484375 -15.523438 10.210938 -15.765625 8.671875 -15.765625 C 7.304688 -15.765625 6.113281 -15.53125 5.09375 -15.0625 C 4.070312 -14.59375 3.21875 -13.976562 2.53125 -13.21875 C 1.851562 -12.46875 1.34375 -11.609375 1 -10.640625 C 0.664062 -9.671875 0.5 -8.679688 0.5 -7.671875 C 0.5 -6.660156 0.664062 -5.664062 1 -4.6875 C 1.34375 -3.71875 1.851562 -2.851562 2.53125 -2.09375 C 3.21875 -1.34375 4.070312 -0.734375 5.09375 -0.265625 C 6.113281 0.203125 7.304688 0.4375 8.671875 0.4375 C 9.628906 0.4375 10.507812 0.304688 11.3125 0.046875 C 12.125 -0.203125 12.847656 -0.539062 13.484375 -0.96875 C 14.117188 -1.40625 14.65625 -1.90625 15.09375 -2.46875 C 15.539062 -3.03125 15.882812 -3.625 16.125 -4.25 C 16.195312 -4.414062 16.234375 -4.570312 16.234375 -4.71875 C 16.234375 -4.957031 16.148438 -5.078125 15.984375 -5.078125 C 15.835938 -5.078125 15.726562 -5.023438 15.65625 -4.921875 C 15.582031 -4.828125 15.488281 -4.675781 15.375 -4.46875 C 15.101562 -3.9375 14.769531 -3.425781 14.375 -2.9375 C 13.976562 -2.445312 13.503906 -2.007812 12.953125 -1.625 C 12.398438 -1.238281 11.769531 -0.929688 11.0625 -0.703125 C 10.363281 -0.472656 9.566406 -0.359375 8.671875 -0.359375 C 8.316406 -0.359375 7.992188 -0.40625 7.703125 -0.5 C 7.410156 -0.59375 7.160156 -0.769531 6.953125 -1.03125 C 6.753906 -1.300781 6.601562 -1.671875 6.5 -2.140625 C 6.394531 -2.609375 6.34375 -3.203125 6.34375 -3.921875 L 6.34375 -8.890625 Z M 6.34375 -12.234375 C 6.34375 -14.160156 7.109375 -15.125 8.640625 -15.125 C 10.128906 -15.125 10.875 -14.160156 10.875 -12.234375 L 10.875 -9.578125 L 6.34375 -9.578125 Z M 6.34375 -12.234375 "/></g></g></g><g fill="#e8e8e8" fill-opacity="1"><g transform="translate(710.771279, 729.749983)"><g/></g></g><g fill="#e8e8e8" fill-opacity="1"><g transform="translate(719.411293, 729.749983)"><g><path d="M 3.5625 -19.015625 C 3.613281 -19.015625 3.675781 -19.015625 3.75 -19.015625 C 3.84375 -19.015625 3.9375 -19.023438 4.03125 -19.046875 C 4.34375 -19.085938 4.707031 -19.164062 5.125 -19.28125 C 5.550781 -19.40625 5.976562 -19.546875 6.40625 -19.703125 C 6.84375 -19.859375 7.257812 -20.019531 7.65625 -20.1875 C 8.050781 -20.363281 8.40625 -20.519531 8.71875 -20.65625 L 8.71875 -0.578125 L 6.765625 -0.578125 L 6.765625 0 L 16.0625 0 L 16.0625 -0.578125 L 14.109375 -0.578125 L 14.109375 -24.1875 L 11.09375 -24.1875 C 10.125 -23.351562 9.019531 -22.503906 7.78125 -21.640625 C 6.550781 -20.773438 5.21875 -20.085938 3.78125 -19.578125 C 3.394531 -19.441406 3.203125 -19.300781 3.203125 -19.15625 C 3.203125 -19.0625 3.320312 -19.015625 3.5625 -19.015625 Z M 3.5625 -19.015625 "/></g></g></g><g fill="#e8e8e8" fill-opacity="1"><g transform="translate(739.247319, 729.749983)"><g><path d="M 13.03125 -14.359375 C 13.03125 -13.972656 13.007812 -13.550781 12.96875 -13.09375 C 12.9375 -12.644531 12.882812 -12.289062 12.8125 -12.03125 C 12.644531 -11.539062 12.367188 -11.066406 11.984375 -10.609375 C 11.597656 -10.160156 11.082031 -9.9375 10.4375 -9.9375 C 9.84375 -9.9375 9.378906 -10.050781 9.046875 -10.28125 C 8.722656 -10.507812 8.484375 -10.820312 8.328125 -11.21875 C 8.171875 -11.613281 8.082031 -12.078125 8.0625 -12.609375 C 8.039062 -13.148438 8.03125 -13.734375 8.03125 -14.359375 L 8.03125 -18.4375 C 8.03125 -19.195312 8.039062 -19.910156 8.0625 -20.578125 C 8.082031 -21.253906 8.171875 -21.84375 8.328125 -22.34375 C 8.484375 -22.851562 8.726562 -23.25 9.0625 -23.53125 C 9.40625 -23.820312 9.890625 -23.96875 10.515625 -23.96875 C 11.140625 -23.96875 11.625 -23.8125 11.96875 -23.5 C 12.3125 -23.195312 12.5625 -22.789062 12.71875 -22.28125 C 12.875 -21.78125 12.960938 -21.195312 12.984375 -20.53125 C 13.015625 -19.875 13.03125 -19.1875 13.03125 -18.46875 Z M 2.765625 -3.703125 C 2.765625 -2.554688 3.28125 -1.59375 4.3125 -0.8125 C 5.351562 -0.03125 6.851562 0.359375 8.8125 0.359375 C 10.0625 0.359375 11.332031 0.0625 12.625 -0.53125 C 13.925781 -1.132812 15.101562 -2.003906 16.15625 -3.140625 C 17.21875 -4.285156 18.078125 -5.6875 18.734375 -7.34375 C 19.398438 -9 19.734375 -10.894531 19.734375 -13.03125 C 19.734375 -14.632812 19.507812 -16.140625 19.0625 -17.546875 C 18.613281 -18.953125 17.988281 -20.175781 17.1875 -21.21875 C 16.382812 -22.257812 15.414062 -23.085938 14.28125 -23.703125 C 13.15625 -24.316406 11.898438 -24.625 10.515625 -24.625 C 9.242188 -24.625 8.054688 -24.421875 6.953125 -24.015625 C 5.847656 -23.609375 4.882812 -23.039062 4.0625 -22.3125 C 3.25 -21.59375 2.613281 -20.734375 2.15625 -19.734375 C 1.695312 -18.742188 1.46875 -17.648438 1.46875 -16.453125 C 1.46875 -15.179688 1.675781 -14.078125 2.09375 -13.140625 C 2.519531 -12.203125 3.097656 -11.425781 3.828125 -10.8125 C 4.566406 -10.207031 5.425781 -9.75 6.40625 -9.4375 C 7.394531 -9.125 8.441406 -8.96875 9.546875 -8.96875 C 10.453125 -8.96875 11.175781 -9.109375 11.71875 -9.390625 C 12.257812 -9.679688 12.695312 -10.054688 13.03125 -10.515625 L 13.03125 -6.953125 C 13.03125 -5.679688 12.90625 -4.617188 12.65625 -3.765625 C 12.40625 -2.910156 12.066406 -2.226562 11.640625 -1.71875 C 11.222656 -1.21875 10.738281 -0.863281 10.1875 -0.65625 C 9.632812 -0.457031 9.054688 -0.359375 8.453125 -0.359375 C 7.640625 -0.359375 7 -0.476562 6.53125 -0.71875 C 6.0625 -0.957031 5.828125 -1.140625 5.828125 -1.265625 C 5.828125 -1.359375 5.925781 -1.40625 6.125 -1.40625 C 6.8125 -1.40625 7.347656 -1.679688 7.734375 -2.234375 C 8.117188 -2.785156 8.3125 -3.375 8.3125 -4 C 8.3125 -4.789062 8.046875 -5.441406 7.515625 -5.953125 C 6.992188 -6.472656 6.3125 -6.734375 5.46875 -6.734375 C 4.601562 -6.734375 3.9375 -6.425781 3.46875 -5.8125 C 3 -5.195312 2.765625 -4.492188 2.765625 -3.703125 Z M 2.765625 -3.703125 "/></g></g></g><g fill="#e8e8e8" fill-opacity="1"><g transform="translate(759.083351, 729.749983)"><g><path d="M 13.03125 -14.359375 C 13.03125 -13.972656 13.007812 -13.550781 12.96875 -13.09375 C 12.9375 -12.644531 12.882812 -12.289062 12.8125 -12.03125 C 12.644531 -11.539062 12.367188 -11.066406 11.984375 -10.609375 C 11.597656 -10.160156 11.082031 -9.9375 10.4375 -9.9375 C 9.84375 -9.9375 9.378906 -10.050781 9.046875 -10.28125 C 8.722656 -10.507812 8.484375 -10.820312 8.328125 -11.21875 C 8.171875 -11.613281 8.082031 -12.078125 8.0625 -12.609375 C 8.039062 -13.148438 8.03125 -13.734375 8.03125 -14.359375 L 8.03125 -18.4375 C 8.03125 -19.195312 8.039062 -19.910156 8.0625 -20.578125 C 8.082031 -21.253906 8.171875 -21.84375 8.328125 -22.34375 C 8.484375 -22.851562 8.726562 -23.25 9.0625 -23.53125 C 9.40625 -23.820312 9.890625 -23.96875 10.515625 -23.96875 C 11.140625 -23.96875 11.625 -23.8125 11.96875 -23.5 C 12.3125 -23.195312 12.5625 -22.789062 12.71875 -22.28125 C 12.875 -21.78125 12.960938 -21.195312 12.984375 -20.53125 C 13.015625 -19.875 13.03125 -19.1875 13.03125 -18.46875 Z M 2.765625 -3.703125 C 2.765625 -2.554688 3.28125 -1.59375 4.3125 -0.8125 C 5.351562 -0.03125 6.851562 0.359375 8.8125 0.359375 C 10.0625 0.359375 11.332031 0.0625 12.625 -0.53125 C 13.925781 -1.132812 15.101562 -2.003906 16.15625 -3.140625 C 17.21875 -4.285156 18.078125 -5.6875 18.734375 -7.34375 C 19.398438 -9 19.734375 -10.894531 19.734375 -13.03125 C 19.734375 -14.632812 19.507812 -16.140625 19.0625 -17.546875 C 18.613281 -18.953125 17.988281 -20.175781 17.1875 -21.21875 C 16.382812 -22.257812 15.414062 -23.085938 14.28125 -23.703125 C 13.15625 -24.316406 11.898438 -24.625 10.515625 -24.625 C 9.242188 -24.625 8.054688 -24.421875 6.953125 -24.015625 C 5.847656 -23.609375 4.882812 -23.039062 4.0625 -22.3125 C 3.25 -21.59375 2.613281 -20.734375 2.15625 -19.734375 C 1.695312 -18.742188 1.46875 -17.648438 1.46875 -16.453125 C 1.46875 -15.179688 1.675781 -14.078125 2.09375 -13.140625 C 2.519531 -12.203125 3.097656 -11.425781 3.828125 -10.8125 C 4.566406 -10.207031 5.425781 -9.75 6.40625 -9.4375 C 7.394531 -9.125 8.441406 -8.96875 9.546875 -8.96875 C 10.453125 -8.96875 11.175781 -9.109375 11.71875 -9.390625 C 12.257812 -9.679688 12.695312 -10.054688 13.03125 -10.515625 L 13.03125 -6.953125 C 13.03125 -5.679688 12.90625 -4.617188 12.65625 -3.765625 C 12.40625 -2.910156 12.066406 -2.226562 11.640625 -1.71875 C 11.222656 -1.21875 10.738281 -0.863281 10.1875 -0.65625 C 9.632812 -0.457031 9.054688 -0.359375 8.453125 -0.359375 C 7.640625 -0.359375 7 -0.476562 6.53125 -0.71875 C 6.0625 -0.957031 5.828125 -1.140625 5.828125 -1.265625 C 5.828125 -1.359375 5.925781 -1.40625 6.125 -1.40625 C 6.8125 -1.40625 7.347656 -1.679688 7.734375 -2.234375 C 8.117188 -2.785156 8.3125 -3.375 8.3125 -4 C 8.3125 -4.789062 8.046875 -5.441406 7.515625 -5.953125 C 6.992188 -6.472656 6.3125 -6.734375 5.46875 -6.734375 C 4.601562 -6.734375 3.9375 -6.425781 3.46875 -5.8125 C 3 -5.195312 2.765625 -4.492188 2.765625 -3.703125 Z M 2.765625 -3.703125 "/></g></g></g><g fill="#e8e8e8" fill-opacity="1"><g transform="translate(778.919383, 729.749983)"><g><path d="M 13.03125 -14.359375 C 13.03125 -13.972656 13.007812 -13.550781 12.96875 -13.09375 C 12.9375 -12.644531 12.882812 -12.289062 12.8125 -12.03125 C 12.644531 -11.539062 12.367188 -11.066406 11.984375 -10.609375 C 11.597656 -10.160156 11.082031 -9.9375 10.4375 -9.9375 C 9.84375 -9.9375 9.378906 -10.050781 9.046875 -10.28125 C 8.722656 -10.507812 8.484375 -10.820312 8.328125 -11.21875 C 8.171875 -11.613281 8.082031 -12.078125 8.0625 -12.609375 C 8.039062 -13.148438 8.03125 -13.734375 8.03125 -14.359375 L 8.03125 -18.4375 C 8.03125 -19.195312 8.039062 -19.910156 8.0625 -20.578125 C 8.082031 -21.253906 8.171875 -21.84375 8.328125 -22.34375 C 8.484375 -22.851562 8.726562 -23.25 9.0625 -23.53125 C 9.40625 -23.820312 9.890625 -23.96875 10.515625 -23.96875 C 11.140625 -23.96875 11.625 -23.8125 11.96875 -23.5 C 12.3125 -23.195312 12.5625 -22.789062 12.71875 -22.28125 C 12.875 -21.78125 12.960938 -21.195312 12.984375 -20.53125 C 13.015625 -19.875 13.03125 -19.1875 13.03125 -18.46875 Z M 2.765625 -3.703125 C 2.765625 -2.554688 3.28125 -1.59375 4.3125 -0.8125 C 5.351562 -0.03125 6.851562 0.359375 8.8125 0.359375 C 10.0625 0.359375 11.332031 0.0625 12.625 -0.53125 C 13.925781 -1.132812 15.101562 -2.003906 16.15625 -3.140625 C 17.21875 -4.285156 18.078125 -5.6875 18.734375 -7.34375 C 19.398438 -9 19.734375 -10.894531 19.734375 -13.03125 C 19.734375 -14.632812 19.507812 -16.140625 19.0625 -17.546875 C 18.613281 -18.953125 17.988281 -20.175781 17.1875 -21.21875 C 16.382812 -22.257812 15.414062 -23.085938 14.28125 -23.703125 C 13.15625 -24.316406 11.898438 -24.625 10.515625 -24.625 C 9.242188 -24.625 8.054688 -24.421875 6.953125 -24.015625 C 5.847656 -23.609375 4.882812 -23.039062 4.0625 -22.3125 C 3.25 -21.59375 2.613281 -20.734375 2.15625 -19.734375 C 1.695312 -18.742188 1.46875 -17.648438 1.46875 -16.453125 C 1.46875 -15.179688 1.675781 -14.078125 2.09375 -13.140625 C 2.519531 -12.203125 3.097656 -11.425781 3.828125 -10.8125 C 4.566406 -10.207031 5.425781 -9.75 6.40625 -9.4375 C 7.394531 -9.125 8.441406 -8.96875 9.546875 -8.96875 C 10.453125 -8.96875 11.175781 -9.109375 11.71875 -9.390625 C 12.257812 -9.679688 12.695312 -10.054688 13.03125 -10.515625 L 13.03125 -6.953125 C 13.03125 -5.679688 12.90625 -4.617188 12.65625 -3.765625 C 12.40625 -2.910156 12.066406 -2.226562 11.640625 -1.71875 C 11.222656 -1.21875 10.738281 -0.863281 10.1875 -0.65625 C 9.632812 -0.457031 9.054688 -0.359375 8.453125 -0.359375 C 7.640625 -0.359375 7 -0.476562 6.53125 -0.71875 C 6.0625 -0.957031 5.828125 -1.140625 5.828125 -1.265625 C 5.828125 -1.359375 5.925781 -1.40625 6.125 -1.40625 C 6.8125 -1.40625 7.347656 -1.679688 7.734375 -2.234375 C 8.117188 -2.785156 8.3125 -3.375 8.3125 -4 C 8.3125 -4.789062 8.046875 -5.441406 7.515625 -5.953125 C 6.992188 -6.472656 6.3125 -6.734375 5.46875 -6.734375 C 4.601562 -6.734375 3.9375 -6.425781 3.46875 -5.8125 C 3 -5.195312 2.765625 -4.492188 2.765625 -3.703125 Z M 2.765625 -3.703125 "/></g></g></g></svg>