<svg xmlns="http://www.w3.org/2000/svg" xmlns:xlink="http://www.w3.org/1999/xlink" width="1920" zoomAndPan="magnify" viewBox="0 0 1440 809.999993" height="1080" preserveAspectRatio="xMidYMid meet" version="1.0"><defs><g/><clipPath id="bc6267f4ce"><path d="M 0 0 L 426.988281 0 L 426.988281 810 L 0 810 Z M 0 0 " clip-rule="nonzero"/></clipPath><clipPath id="47a30f416c"><path d="M 8.578125 0 L 363.988281 0 C 380.695312 0 396.71875 6.636719 408.535156 18.453125 C 420.351562 30.265625 426.988281 46.292969 426.988281 63 L 426.988281 747 C 426.988281 763.707031 420.351562 779.734375 408.535156 791.546875 C 396.71875 803.363281 380.695312 810 363.988281 810 L 8.578125 810 C -8.128906 810 -24.152344 803.363281 -35.96875 791.546875 C -47.78125 779.734375 -54.421875 763.707031 -54.421875 747 L -54.421875 63 C -54.421875 46.292969 -47.78125 30.265625 -35.96875 18.453125 C -24.152344 6.636719 -8.128906 0 8.578125 0 Z M 8.578125 0 " clip-rule="nonzero"/></clipPath><clipPath id="0c79df57d7"><path d="M 47 161.175781 L 379 161.175781 L 379 615.675781 L 47 615.675781 Z M 47 161.175781 " clip-rule="nonzero"/></clipPath></defs><rect x="-144" width="1728" fill="#ffffff" y="-80.999999" height="971.999992" fill-opacity="1"/><rect x="-144" width="1728" fill="#004aad" y="-80.999999" height="971.999992" fill-opacity="1"/><g clip-path="url(#bc6267f4ce)"><g clip-path="url(#47a30f416c)"><path fill="#e8e8e8" d="M -54.421875 0 L 426.988281 0 L 426.988281 810 L -54.421875 810 Z M -54.421875 0 " fill-opacity="1" fill-rule="nonzero"/></g></g><path fill="#004aad" d="M 349.195312 313.472656 C 351.550781 313.472656 353.457031 312.519531 354.933594 310.605469 C 356.402344 308.695312 357.128906 306.316406 357.128906 303.464844 C 357.128906 300.394531 356.414062 297.9375 354.972656 296.082031 C 353.535156 294.226562 351.671875 293.296875 349.386719 293.296875 C 346.960938 293.296875 345.015625 294.210938 343.5625 296.03125 C 342.105469 297.863281 341.386719 300.285156 341.386719 303.324219 C 341.386719 306.347656 342.101562 308.800781 343.542969 310.667969 C 344.972656 312.539062 346.863281 313.472656 349.195312 313.472656 Z M 349.195312 313.472656 " fill-opacity="1" fill-rule="nonzero"/><path fill="#e8e8e8" d="M 272.429688 245.789062 L 281.308594 245.789062 L 281.308594 250.785156 L 272.429688 250.785156 Z M 272.429688 245.789062 " fill-opacity="1" fill-rule="nonzero"/><g clip-path="url(#0c79df57d7)"><path fill="#004aad" d="M 378.5 475.808594 L 378.5 217.875 L 319.324219 217.875 L 319.324219 245.785156 L 301.277344 245.785156 L 301.277344 174.78125 L 286.566406 174.78125 L 286.566406 161.296875 L 88.1875 161.296875 L 88.1875 174.773438 L 73.476562 174.773438 L 73.476562 598.546875 L 47.527344 598.546875 L 47.527344 615.375 L 327.230469 615.375 L 327.230469 598.546875 L 301.28125 598.546875 L 301.28125 447.886719 L 319.328125 447.886719 L 319.328125 475.796875 L 378.5 475.796875 Z M 356.132812 444.109375 L 341.105469 444.109375 L 341.105469 443.511719 C 341.953125 443.511719 342.566406 443.246094 342.917969 442.714844 C 343.273438 442.191406 343.460938 441.296875 343.460938 440.050781 L 343.460938 426.984375 C 343.460938 425.863281 343.289062 425.085938 342.957031 424.636719 C 342.613281 424.199219 342.003906 423.976562 341.105469 423.976562 L 341.105469 423.378906 L 348.53125 423.378906 L 348.53125 423.976562 C 347.707031 423.976562 347.113281 424.230469 346.757812 424.746094 C 346.398438 425.246094 346.21875 426.089844 346.21875 427.25 L 346.21875 441.105469 C 346.21875 441.886719 346.371094 442.40625 346.703125 442.683594 C 347.027344 442.972656 347.648438 443.109375 348.566406 443.109375 L 352.6875 443.109375 C 353.957031 443.109375 354.851562 442.886719 355.359375 442.449219 C 355.867188 442 356.339844 441.050781 356.789062 439.59375 L 357.40625 439.59375 Z M 343.164062 381.234375 C 342.832031 380.761719 342.21875 380.523438 341.308594 380.523438 L 341.308594 379.925781 L 356.25 379.925781 L 356.25 383.386719 L 355.859375 383.386719 C 355.648438 382.398438 355.347656 381.742188 354.949219 381.414062 C 354.554688 381.09375 353.699219 380.929688 352.378906 380.929688 L 346.398438 380.929688 L 346.398438 389.808594 L 352.203125 389.808594 C 352.988281 389.808594 353.53125 389.667969 353.820312 389.382812 C 354.109375 389.105469 354.320312 388.5625 354.445312 387.777344 L 355.0625 387.777344 L 355.0625 392.8125 L 354.445312 392.8125 C 354.222656 391.933594 353.949219 391.375 353.632812 391.152344 C 353.3125 390.929688 352.617188 390.8125 351.542969 390.8125 L 346.402344 390.8125 L 346.402344 398.234375 C 346.402344 398.757812 346.519531 399.117188 346.746094 399.332031 C 346.976562 399.542969 347.363281 399.652344 347.921875 399.652344 L 351.542969 399.652344 C 352.839844 399.652344 353.738281 399.578125 354.234375 399.441406 C 354.730469 399.304688 355.144531 399.035156 355.484375 398.648438 C 355.828125 398.265625 356.195312 397.644531 356.582031 396.785156 L 357.199219 396.785156 L 356.242188 400.652344 L 341.304688 400.652344 L 341.304688 400.058594 C 342.238281 400.058594 342.859375 399.816406 343.179688 399.34375 C 343.5 398.863281 343.65625 398.019531 343.65625 396.804688 L 343.65625 383.828125 C 343.664062 382.566406 343.5 381.703125 343.164062 381.234375 Z M 358.53125 340.445312 L 358.121094 340.445312 C 357.859375 339.304688 357.402344 338.523438 356.734375 338.101562 C 356.070312 337.6875 355.070312 337.480469 353.738281 337.480469 L 350.589844 337.480469 L 350.589844 353.425781 C 350.589844 354.675781 350.746094 355.515625 351.050781 355.953125 C 351.355469 356.390625 351.953125 356.609375 352.835938 356.609375 L 352.835938 357.207031 L 345.496094 357.207031 L 345.496094 356.609375 C 346.410156 356.609375 347.027344 356.363281 347.359375 355.855469 C 347.6875 355.351562 347.851562 354.503906 347.851562 353.316406 L 347.851562 337.472656 L 344.839844 337.472656 C 343.40625 337.472656 342.363281 337.703125 341.707031 338.160156 C 341.050781 338.621094 340.679688 339.386719 340.605469 340.4375 L 339.988281 340.4375 L 339.988281 335.6875 L 340.605469 335.6875 C 341.160156 336.207031 342.191406 336.464844 343.710938 336.464844 L 354.582031 336.464844 C 356.152344 336.464844 357.25 336.207031 357.875 335.6875 L 358.53125 335.6875 Z M 338.5 269.703125 C 339.414062 269.703125 340.03125 269.457031 340.363281 268.96875 C 340.695312 268.484375 340.859375 267.625 340.859375 266.410156 L 340.859375 253.472656 C 340.859375 252.199219 340.691406 251.328125 340.351562 250.863281 C 340.015625 250.402344 339.402344 250.164062 338.5 250.164062 L 338.5 249.570312 L 346 249.570312 L 346 250.164062 C 345.09375 250.164062 344.464844 250.414062 344.117188 250.917969 C 343.769531 251.414062 343.597656 252.265625 343.597656 253.46875 L 343.597656 259.375 L 354.890625 259.375 L 354.890625 253.46875 C 354.890625 252.195312 354.730469 251.320312 354.402344 250.855469 C 354.082031 250.398438 353.46875 250.160156 352.574219 250.160156 L 352.574219 249.5625 L 359.996094 249.5625 L 359.996094 250.160156 C 359.117188 250.160156 358.503906 250.398438 358.160156 250.882812 C 357.816406 251.371094 357.640625 252.226562 357.640625 253.46875 L 357.640625 266.402344 C 357.640625 267.648438 357.816406 268.5 358.160156 268.980469 C 358.503906 269.457031 359.117188 269.695312 359.996094 269.695312 L 359.996094 270.296875 L 352.585938 270.296875 L 352.585938 269.695312 C 353.503906 269.695312 354.121094 269.460938 354.429688 268.980469 C 354.746094 268.5 354.898438 267.636719 354.898438 266.402344 L 354.898438 260.378906 L 343.609375 260.378906 L 343.609375 266.402344 C 343.609375 267.632812 343.777344 268.488281 344.125 268.96875 C 344.46875 269.457031 345.105469 269.695312 346.011719 269.695312 L 346.011719 270.296875 L 338.511719 270.296875 L 338.511719 269.703125 Z M 341.386719 295.589844 C 343.503906 293.539062 346.148438 292.503906 349.320312 292.503906 C 352.394531 292.503906 355 293.546875 357.128906 295.632812 C 359.257812 297.71875 360.324219 300.269531 360.324219 303.289062 C 360.324219 306.363281 359.246094 308.96875 357.101562 311.089844 C 354.949219 313.210938 352.332031 314.273438 349.230469 314.273438 C 346.152344 314.273438 343.535156 313.210938 341.402344 311.089844 C 339.265625 308.964844 338.195312 306.363281 338.195312 303.289062 C 338.195312 300.214844 339.261719 297.648438 341.386719 295.589844 Z M 238.601562 221.441406 C 238.601562 215.648438 243.296875 210.949219 249.09375 210.949219 L 270.824219 210.949219 C 276.617188 210.949219 281.3125 215.648438 281.3125 221.441406 L 281.3125 250.78125 L 238.605469 250.78125 L 238.605469 221.441406 Z M 166.023438 221.441406 C 166.023438 215.648438 170.71875 210.949219 176.511719 210.949219 L 198.238281 210.949219 C 204.035156 210.949219 208.730469 215.648438 208.730469 221.441406 L 208.730469 250.78125 L 166.023438 250.78125 Z M 166.023438 294.019531 C 166.023438 288.222656 170.71875 283.535156 176.511719 283.535156 L 198.238281 283.535156 C 204.035156 283.535156 208.730469 288.222656 208.730469 294.019531 L 208.730469 323.359375 L 166.023438 323.359375 Z M 166.023438 366.59375 C 166.023438 360.800781 170.71875 356.105469 176.511719 356.105469 L 198.238281 356.105469 C 204.035156 356.105469 208.730469 360.800781 208.730469 366.59375 L 208.730469 395.933594 L 166.023438 395.933594 Z M 166.023438 439.171875 C 166.023438 433.378906 170.71875 428.6875 176.511719 428.6875 L 198.238281 428.6875 C 204.035156 428.6875 208.730469 433.378906 208.730469 439.171875 L 208.730469 468.511719 L 166.023438 468.511719 Z M 136.152344 468.511719 L 93.445312 468.511719 L 93.445312 439.171875 C 93.445312 433.378906 98.140625 428.6875 103.933594 428.6875 L 125.664062 428.6875 C 131.457031 428.6875 136.152344 433.378906 136.152344 439.171875 Z M 136.152344 395.933594 L 93.445312 395.933594 L 93.445312 366.59375 C 93.445312 360.800781 98.140625 356.105469 103.933594 356.105469 L 125.664062 356.105469 C 131.457031 356.105469 136.152344 360.800781 136.152344 366.59375 Z M 136.152344 323.359375 L 93.445312 323.359375 L 93.445312 294.019531 C 93.445312 288.222656 98.140625 283.535156 103.933594 283.535156 L 125.664062 283.535156 C 131.457031 283.535156 136.152344 288.222656 136.152344 294.019531 Z M 136.152344 250.78125 L 93.445312 250.78125 L 93.445312 221.441406 C 93.445312 215.648438 98.140625 210.949219 103.933594 210.949219 L 125.664062 210.949219 C 131.457031 210.949219 136.152344 215.648438 136.152344 221.441406 Z M 220.933594 598.550781 L 153.8125 598.550781 L 153.8125 509.902344 L 220.933594 509.902344 Z M 281.308594 447.894531 L 281.308594 468.507812 L 238.601562 468.507812 L 238.601562 439.167969 C 238.601562 433.375 243.296875 428.683594 249.09375 428.683594 L 270.824219 428.683594 C 274.929688 428.683594 278.488281 431.050781 280.210938 434.488281 C 280.917969 435.894531 281.3125 437.484375 281.3125 439.167969 L 281.3125 447.894531 Z M 281.308594 395.933594 L 238.601562 395.933594 L 238.601562 366.59375 C 238.601562 360.800781 243.296875 356.105469 249.09375 356.105469 L 270.824219 356.105469 C 276.617188 356.105469 281.3125 360.800781 281.3125 366.59375 L 281.3125 395.933594 Z M 281.308594 323.359375 L 238.601562 323.359375 L 238.601562 294.019531 C 238.601562 288.222656 243.296875 283.535156 249.09375 283.535156 L 270.824219 283.535156 C 276.617188 283.535156 281.3125 288.222656 281.3125 294.019531 L 281.3125 323.359375 Z M 301.277344 434.488281 L 301.277344 259.191406 L 319.324219 259.191406 L 319.324219 434.492188 L 301.277344 434.492188 Z M 301.277344 434.488281 " fill-opacity="1" fill-rule="nonzero"/></g><g fill="#ffffff" fill-opacity="1"><g transform="translate(460.886791, 474.107294)"><g><path d="M 86.625 -142.609375 L 29.78125 -142.609375 L 29.78125 -139.21875 L 41.203125 -139.21875 L 41.203125 -8.875 C 41.203125 -5.207031 41.023438 -1.828125 40.671875 1.265625 C 40.316406 4.367188 39.609375 7.082031 38.546875 9.40625 C 37.492188 11.726562 36.050781 13.554688 34.21875 14.890625 C 32.394531 16.234375 29.929688 16.90625 26.828125 16.90625 C 23.453125 16.90625 20.597656 16.515625 18.265625 15.734375 C 15.941406 14.960938 14.78125 14.296875 14.78125 13.734375 C 14.78125 13.171875 15.207031 12.890625 16.0625 12.890625 C 20.5625 12.890625 23.972656 11.515625 26.296875 8.765625 C 28.617188 6.015625 29.78125 2.953125 29.78125 -0.421875 C 29.78125 -3.804688 28.582031 -6.941406 26.1875 -9.828125 C 23.800781 -12.710938 20.210938 -14.15625 15.421875 -14.15625 C 10.910156 -14.15625 7.492188 -12.742188 5.171875 -9.921875 C 2.847656 -7.109375 1.6875 -3.800781 1.6875 0 C 1.6875 2.53125 2.175781 5.03125 3.15625 7.5 C 4.144531 9.96875 5.695312 12.1875 7.8125 14.15625 C 9.925781 16.125 12.601562 17.707031 15.84375 18.90625 C 19.082031 20.101562 22.957031 20.703125 27.46875 20.703125 C 42.820312 20.703125 54.613281 16.546875 62.84375 8.234375 C 71.082031 -0.0664062 75.203125 -12.8125 75.203125 -30 L 75.203125 -139.21875 L 86.625 -139.21875 Z M 86.625 -142.609375 "/></g></g></g><g fill="#ffffff" fill-opacity="1"><g transform="translate(544.338875, 474.107294)"><g><path d="M 48.59375 -92.328125 C 39.289062 -92.328125 31.613281 -90.914062 25.5625 -88.09375 C 19.507812 -85.28125 16.484375 -81.054688 16.484375 -75.421875 C 16.484375 -71.335938 17.644531 -68.414062 19.96875 -66.65625 C 22.289062 -64.894531 24.929688 -64.015625 27.890625 -64.015625 C 30.285156 -64.015625 32.222656 -64.398438 33.703125 -65.171875 C 35.179688 -65.953125 36.34375 -66.867188 37.1875 -67.921875 C 38.03125 -68.972656 38.59375 -70.132812 38.875 -71.40625 C 39.15625 -72.675781 39.296875 -73.734375 39.296875 -74.578125 C 39.296875 -78.097656 37.957031 -80.703125 35.28125 -82.390625 C 34.289062 -82.953125 33.796875 -83.65625 33.796875 -84.5 C 33.796875 -85.632812 34.851562 -86.585938 36.96875 -87.359375 C 39.082031 -88.128906 43.023438 -88.515625 48.796875 -88.515625 C 54.015625 -88.515625 57.394531 -87.101562 58.9375 -84.28125 C 60.488281 -81.46875 61.265625 -77.53125 61.265625 -72.46875 L 61.265625 -55.5625 L 38.453125 -55.5625 C 32.671875 -55.5625 27.632812 -54.679688 23.34375 -52.921875 C 19.050781 -51.160156 15.457031 -48.867188 12.5625 -46.046875 C 9.675781 -43.234375 7.53125 -40.03125 6.125 -36.4375 C 4.71875 -32.851562 4.015625 -29.226562 4.015625 -25.5625 C 4.015625 -21.757812 4.679688 -18.128906 6.015625 -14.671875 C 7.359375 -11.222656 9.367188 -8.234375 12.046875 -5.703125 C 14.722656 -3.171875 18.066406 -1.164062 22.078125 0.3125 C 26.085938 1.789062 30.769531 2.53125 36.125 2.53125 C 39.644531 2.53125 42.773438 2.175781 45.515625 1.46875 C 48.265625 0.769531 50.695312 -0.140625 52.8125 -1.265625 C 54.925781 -2.390625 56.789062 -3.585938 58.40625 -4.859375 C 60.03125 -6.128906 61.40625 -7.328125 62.53125 -8.453125 C 63.800781 -5.492188 66.335938 -2.921875 70.140625 -0.734375 C 73.941406 1.441406 79.4375 2.53125 86.625 2.53125 C 91.6875 2.53125 95.695312 1.96875 98.65625 0.84375 C 101.613281 -0.28125 103.898438 -1.617188 105.515625 -3.171875 C 107.140625 -4.722656 108.195312 -6.410156 108.6875 -8.234375 C 109.1875 -10.066406 109.4375 -11.757812 109.4375 -13.3125 C 109.4375 -14.4375 109.015625 -15 108.171875 -15 C 107.179688 -15 106.617188 -14.363281 106.484375 -13.09375 C 106.054688 -10.976562 105.382812 -9.144531 104.46875 -7.59375 C 103.550781 -6.050781 101.894531 -5.28125 99.5 -5.28125 C 96.6875 -5.28125 94.890625 -6.226562 94.109375 -8.125 C 93.335938 -10.03125 92.953125 -12.675781 92.953125 -16.0625 L 92.953125 -60.421875 C 92.953125 -66.335938 92.140625 -71.335938 90.515625 -75.421875 C 88.898438 -79.503906 86.296875 -82.8125 82.703125 -85.34375 C 79.117188 -87.882812 74.546875 -89.679688 68.984375 -90.734375 C 63.421875 -91.796875 56.625 -92.328125 48.59375 -92.328125 Z M 61.265625 -51.765625 L 61.265625 -14.78125 C 61.265625 -13.519531 60.664062 -12.21875 59.46875 -10.875 C 58.269531 -9.539062 56.828125 -8.34375 55.140625 -7.28125 C 53.453125 -6.226562 51.757812 -5.347656 50.0625 -4.640625 C 48.375 -3.941406 47.109375 -3.59375 46.265625 -3.59375 C 42.742188 -3.59375 40.242188 -5.316406 38.765625 -8.765625 C 37.285156 -12.210938 36.546875 -17.882812 36.546875 -25.78125 C 36.546875 -33.519531 37.773438 -39.785156 40.234375 -44.578125 C 42.703125 -49.367188 46.828125 -51.765625 52.609375 -51.765625 Z M 61.265625 -51.765625 "/></g></g></g><g fill="#ffffff" fill-opacity="1"><g transform="translate(649.551884, 474.107294)"><g><path d="M 90.640625 -83.03125 C 90.640625 -81.332031 90.425781 -79.992188 90 -79.015625 L 72.25 -34.21875 L 47.953125 -87.46875 L 59.359375 -87.46875 L 59.359375 -90.84375 L 4.21875 -90.84375 L 4.21875 -87.46875 L 15.640625 -87.46875 L 55.140625 0 L 62.328125 0 L 94.015625 -79.21875 C 95.285156 -82.320312 96.941406 -84.472656 98.984375 -85.671875 C 101.023438 -86.867188 103.664062 -87.46875 106.90625 -87.46875 L 106.90625 -90.84375 L 81.96875 -90.84375 L 81.96875 -87.46875 C 85.070312 -87.46875 87.289062 -87.007812 88.625 -86.09375 C 89.96875 -85.175781 90.640625 -84.15625 90.640625 -83.03125 Z M 90.640625 -83.03125 "/></g></g></g><g fill="#ffffff" fill-opacity="1"><g transform="translate(749.060592, 474.107294)"><g><path d="M 48.59375 -92.328125 C 39.289062 -92.328125 31.613281 -90.914062 25.5625 -88.09375 C 19.507812 -85.28125 16.484375 -81.054688 16.484375 -75.421875 C 16.484375 -71.335938 17.644531 -68.414062 19.96875 -66.65625 C 22.289062 -64.894531 24.929688 -64.015625 27.890625 -64.015625 C 30.285156 -64.015625 32.222656 -64.398438 33.703125 -65.171875 C 35.179688 -65.953125 36.34375 -66.867188 37.1875 -67.921875 C 38.03125 -68.972656 38.59375 -70.132812 38.875 -71.40625 C 39.15625 -72.675781 39.296875 -73.734375 39.296875 -74.578125 C 39.296875 -78.097656 37.957031 -80.703125 35.28125 -82.390625 C 34.289062 -82.953125 33.796875 -83.65625 33.796875 -84.5 C 33.796875 -85.632812 34.851562 -86.585938 36.96875 -87.359375 C 39.082031 -88.128906 43.023438 -88.515625 48.796875 -88.515625 C 54.015625 -88.515625 57.394531 -87.101562 58.9375 -84.28125 C 60.488281 -81.46875 61.265625 -77.53125 61.265625 -72.46875 L 61.265625 -55.5625 L 38.453125 -55.5625 C 32.671875 -55.5625 27.632812 -54.679688 23.34375 -52.921875 C 19.050781 -51.160156 15.457031 -48.867188 12.5625 -46.046875 C 9.675781 -43.234375 7.53125 -40.03125 6.125 -36.4375 C 4.71875 -32.851562 4.015625 -29.226562 4.015625 -25.5625 C 4.015625 -21.757812 4.679688 -18.128906 6.015625 -14.671875 C 7.359375 -11.222656 9.367188 -8.234375 12.046875 -5.703125 C 14.722656 -3.171875 18.066406 -1.164062 22.078125 0.3125 C 26.085938 1.789062 30.769531 2.53125 36.125 2.53125 C 39.644531 2.53125 42.773438 2.175781 45.515625 1.46875 C 48.265625 0.769531 50.695312 -0.140625 52.8125 -1.265625 C 54.925781 -2.390625 56.789062 -3.585938 58.40625 -4.859375 C 60.03125 -6.128906 61.40625 -7.328125 62.53125 -8.453125 C 63.800781 -5.492188 66.335938 -2.921875 70.140625 -0.734375 C 73.941406 1.441406 79.4375 2.53125 86.625 2.53125 C 91.6875 2.53125 95.695312 1.96875 98.65625 0.84375 C 101.613281 -0.28125 103.898438 -1.617188 105.515625 -3.171875 C 107.140625 -4.722656 108.195312 -6.410156 108.6875 -8.234375 C 109.1875 -10.066406 109.4375 -11.757812 109.4375 -13.3125 C 109.4375 -14.4375 109.015625 -15 108.171875 -15 C 107.179688 -15 106.617188 -14.363281 106.484375 -13.09375 C 106.054688 -10.976562 105.382812 -9.144531 104.46875 -7.59375 C 103.550781 -6.050781 101.894531 -5.28125 99.5 -5.28125 C 96.6875 -5.28125 94.890625 -6.226562 94.109375 -8.125 C 93.335938 -10.03125 92.953125 -12.675781 92.953125 -16.0625 L 92.953125 -60.421875 C 92.953125 -66.335938 92.140625 -71.335938 90.515625 -75.421875 C 88.898438 -79.503906 86.296875 -82.8125 82.703125 -85.34375 C 79.117188 -87.882812 74.546875 -89.679688 68.984375 -90.734375 C 63.421875 -91.796875 56.625 -92.328125 48.59375 -92.328125 Z M 61.265625 -51.765625 L 61.265625 -14.78125 C 61.265625 -13.519531 60.664062 -12.21875 59.46875 -10.875 C 58.269531 -9.539062 56.828125 -8.34375 55.140625 -7.28125 C 53.453125 -6.226562 51.757812 -5.347656 50.0625 -4.640625 C 48.375 -3.941406 47.109375 -3.59375 46.265625 -3.59375 C 42.742188 -3.59375 40.242188 -5.316406 38.765625 -8.765625 C 37.285156 -12.210938 36.546875 -17.882812 36.546875 -25.78125 C 36.546875 -33.519531 37.773438 -39.785156 40.234375 -44.578125 C 42.703125 -49.367188 46.828125 -51.765625 52.609375 -51.765625 Z M 61.265625 -51.765625 "/></g></g></g><g fill="#ffffff" fill-opacity="1"><g transform="translate(918.880448, 474.107294)"><g><path d="M 86.625 -142.609375 L 29.78125 -142.609375 L 29.78125 -139.21875 L 41.203125 -139.21875 L 41.203125 -8.875 C 41.203125 -5.207031 41.023438 -1.828125 40.671875 1.265625 C 40.316406 4.367188 39.609375 7.082031 38.546875 9.40625 C 37.492188 11.726562 36.050781 13.554688 34.21875 14.890625 C 32.394531 16.234375 29.929688 16.90625 26.828125 16.90625 C 23.453125 16.90625 20.597656 16.515625 18.265625 15.734375 C 15.941406 14.960938 14.78125 14.296875 14.78125 13.734375 C 14.78125 13.171875 15.207031 12.890625 16.0625 12.890625 C 20.5625 12.890625 23.972656 11.515625 26.296875 8.765625 C 28.617188 6.015625 29.78125 2.953125 29.78125 -0.421875 C 29.78125 -3.804688 28.582031 -6.941406 26.1875 -9.828125 C 23.800781 -12.710938 20.210938 -14.15625 15.421875 -14.15625 C 10.910156 -14.15625 7.492188 -12.742188 5.171875 -9.921875 C 2.847656 -7.109375 1.6875 -3.800781 1.6875 0 C 1.6875 2.53125 2.175781 5.03125 3.15625 7.5 C 4.144531 9.96875 5.695312 12.1875 7.8125 14.15625 C 9.925781 16.125 12.601562 17.707031 15.84375 18.90625 C 19.082031 20.101562 22.957031 20.703125 27.46875 20.703125 C 42.820312 20.703125 54.613281 16.546875 62.84375 8.234375 C 71.082031 -0.0664062 75.203125 -12.8125 75.203125 -30 L 75.203125 -139.21875 L 86.625 -139.21875 Z M 86.625 -142.609375 "/></g></g></g><g fill="#ffffff" fill-opacity="1"><g transform="translate(1002.332532, 474.107294)"><g><path d="M 3.375 -45 C 3.375 -39.082031 4.359375 -33.269531 6.328125 -27.5625 C 8.304688 -21.863281 11.234375 -16.796875 15.109375 -12.359375 C 18.984375 -7.921875 23.910156 -4.328125 29.890625 -1.578125 C 35.878906 1.160156 42.890625 2.53125 50.921875 2.53125 C 58.941406 2.53125 65.945312 1.160156 71.9375 -1.578125 C 77.925781 -4.328125 82.851562 -7.921875 86.71875 -12.359375 C 90.59375 -16.796875 93.515625 -21.863281 95.484375 -27.5625 C 97.460938 -33.269531 98.453125 -39.082031 98.453125 -45 C 98.453125 -50.914062 97.460938 -56.722656 95.484375 -62.421875 C 93.515625 -68.128906 90.59375 -73.203125 86.71875 -77.640625 C 82.851562 -82.078125 77.925781 -85.664062 71.9375 -88.40625 C 65.945312 -91.15625 58.941406 -92.53125 50.921875 -92.53125 C 42.890625 -92.53125 35.878906 -91.15625 29.890625 -88.40625 C 23.910156 -85.664062 18.984375 -82.078125 15.109375 -77.640625 C 11.234375 -73.203125 8.304688 -68.128906 6.328125 -62.421875 C 4.359375 -56.722656 3.375 -50.914062 3.375 -45 Z M 36.125 -52.8125 C 36.125 -58.445312 36.265625 -63.515625 36.546875 -68.015625 C 36.828125 -72.523438 37.457031 -76.296875 38.4375 -79.328125 C 39.425781 -82.359375 40.90625 -84.679688 42.875 -86.296875 C 44.851562 -87.921875 47.535156 -88.734375 50.921875 -88.734375 C 54.296875 -88.734375 56.96875 -87.921875 58.9375 -86.296875 C 60.914062 -84.679688 62.394531 -82.359375 63.375 -79.328125 C 64.363281 -76.296875 65 -72.523438 65.28125 -68.015625 C 65.5625 -63.515625 65.703125 -58.445312 65.703125 -52.8125 L 65.703125 -36.34375 C 65.703125 -30.5625 65.5625 -25.488281 65.28125 -21.125 C 65 -16.757812 64.363281 -13.097656 63.375 -10.140625 C 62.394531 -7.179688 60.914062 -4.960938 58.9375 -3.484375 C 56.96875 -2.003906 54.296875 -1.265625 50.921875 -1.265625 C 47.535156 -1.265625 44.851562 -2.003906 42.875 -3.484375 C 40.90625 -4.960938 39.425781 -7.179688 38.4375 -10.140625 C 37.457031 -13.097656 36.828125 -16.757812 36.546875 -21.125 C 36.265625 -25.488281 36.125 -30.5625 36.125 -36.34375 Z M 36.125 -52.8125 "/></g></g></g><g fill="#ffffff" fill-opacity="1"><g transform="translate(1095.714362, 474.107294)"><g><path d="M 67.1875 -1.265625 L 96.96875 -79.21875 C 98.09375 -82.320312 99.78125 -84.472656 102.03125 -85.671875 C 104.289062 -86.867188 106.828125 -87.46875 109.640625 -87.46875 L 109.640625 -90.84375 L 84.71875 -90.84375 L 84.71875 -87.46875 C 88.09375 -87.46875 90.414062 -86.9375 91.6875 -85.875 C 92.957031 -84.820312 93.59375 -83.734375 93.59375 -82.609375 C 93.59375 -81.191406 93.378906 -80.0625 92.953125 -79.21875 L 74.15625 -30 L 46.90625 -87.46875 L 58.3125 -87.46875 L 58.3125 -90.84375 L 3.796875 -90.84375 L 3.796875 -87.46875 L 15 -87.46875 L 60.421875 7.1875 C 59.710938 10.144531 58.863281 13.242188 57.875 16.484375 C 56.894531 19.722656 55.488281 23.945312 53.65625 29.15625 C 51.40625 35.632812 48.90625 40.878906 46.15625 44.890625 C 43.414062 48.910156 39.4375 50.921875 34.21875 50.921875 C 35.632812 49.929688 36.796875 48.695312 37.703125 47.21875 C 38.617188 45.738281 39.078125 43.519531 39.078125 40.5625 C 39.078125 37.320312 37.953125 34.46875 35.703125 32 C 33.453125 29.539062 30.351562 28.3125 26.40625 28.3125 C 22.46875 28.3125 19.191406 29.507812 16.578125 31.90625 C 13.972656 34.300781 12.671875 37.257812 12.671875 40.78125 C 12.671875 45.5625 14.359375 49.148438 17.734375 51.546875 C 21.117188 53.941406 24.851562 55.140625 28.9375 55.140625 C 33.019531 55.140625 36.46875 54.75 39.28125 53.96875 C 42.101562 53.195312 44.5 51.929688 46.46875 50.171875 C 48.445312 48.410156 50.207031 46.117188 51.75 43.296875 C 53.300781 40.484375 54.851562 36.96875 56.40625 32.75 C 57.394531 29.925781 58.378906 26.929688 59.359375 23.765625 C 60.347656 20.597656 61.300781 17.5 62.21875 14.46875 C 63.132812 11.4375 64.015625 8.546875 64.859375 5.796875 C 65.703125 3.054688 66.476562 0.703125 67.1875 -1.265625 Z M 67.1875 -1.265625 "/></g></g></g><g fill="#ffffff" fill-opacity="1"><g transform="translate(1199.871037, 474.107294)"><g><path d="M 48.59375 -92.328125 C 39.289062 -92.328125 31.613281 -90.914062 25.5625 -88.09375 C 19.507812 -85.28125 16.484375 -81.054688 16.484375 -75.421875 C 16.484375 -71.335938 17.644531 -68.414062 19.96875 -66.65625 C 22.289062 -64.894531 24.929688 -64.015625 27.890625 -64.015625 C 30.285156 -64.015625 32.222656 -64.398438 33.703125 -65.171875 C 35.179688 -65.953125 36.34375 -66.867188 37.1875 -67.921875 C 38.03125 -68.972656 38.59375 -70.132812 38.875 -71.40625 C 39.15625 -72.675781 39.296875 -73.734375 39.296875 -74.578125 C 39.296875 -78.097656 37.957031 -80.703125 35.28125 -82.390625 C 34.289062 -82.953125 33.796875 -83.65625 33.796875 -84.5 C 33.796875 -85.632812 34.851562 -86.585938 36.96875 -87.359375 C 39.082031 -88.128906 43.023438 -88.515625 48.796875 -88.515625 C 54.015625 -88.515625 57.394531 -87.101562 58.9375 -84.28125 C 60.488281 -81.46875 61.265625 -77.53125 61.265625 -72.46875 L 61.265625 -55.5625 L 38.453125 -55.5625 C 32.671875 -55.5625 27.632812 -54.679688 23.34375 -52.921875 C 19.050781 -51.160156 15.457031 -48.867188 12.5625 -46.046875 C 9.675781 -43.234375 7.53125 -40.03125 6.125 -36.4375 C 4.71875 -32.851562 4.015625 -29.226562 4.015625 -25.5625 C 4.015625 -21.757812 4.679688 -18.128906 6.015625 -14.671875 C 7.359375 -11.222656 9.367188 -8.234375 12.046875 -5.703125 C 14.722656 -3.171875 18.066406 -1.164062 22.078125 0.3125 C 26.085938 1.789062 30.769531 2.53125 36.125 2.53125 C 39.644531 2.53125 42.773438 2.175781 45.515625 1.46875 C 48.265625 0.769531 50.695312 -0.140625 52.8125 -1.265625 C 54.925781 -2.390625 56.789062 -3.585938 58.40625 -4.859375 C 60.03125 -6.128906 61.40625 -7.328125 62.53125 -8.453125 C 63.800781 -5.492188 66.335938 -2.921875 70.140625 -0.734375 C 73.941406 1.441406 79.4375 2.53125 86.625 2.53125 C 91.6875 2.53125 95.695312 1.96875 98.65625 0.84375 C 101.613281 -0.28125 103.898438 -1.617188 105.515625 -3.171875 C 107.140625 -4.722656 108.195312 -6.410156 108.6875 -8.234375 C 109.1875 -10.066406 109.4375 -11.757812 109.4375 -13.3125 C 109.4375 -14.4375 109.015625 -15 108.171875 -15 C 107.179688 -15 106.617188 -14.363281 106.484375 -13.09375 C 106.054688 -10.976562 105.382812 -9.144531 104.46875 -7.59375 C 103.550781 -6.050781 101.894531 -5.28125 99.5 -5.28125 C 96.6875 -5.28125 94.890625 -6.226562 94.109375 -8.125 C 93.335938 -10.03125 92.953125 -12.675781 92.953125 -16.0625 L 92.953125 -60.421875 C 92.953125 -66.335938 92.140625 -71.335938 90.515625 -75.421875 C 88.898438 -79.503906 86.296875 -82.8125 82.703125 -85.34375 C 79.117188 -87.882812 74.546875 -89.679688 68.984375 -90.734375 C 63.421875 -91.796875 56.625 -92.328125 48.59375 -92.328125 Z M 61.265625 -51.765625 L 61.265625 -14.78125 C 61.265625 -13.519531 60.664062 -12.21875 59.46875 -10.875 C 58.269531 -9.539062 56.828125 -8.34375 55.140625 -7.28125 C 53.453125 -6.226562 51.757812 -5.347656 50.0625 -4.640625 C 48.375 -3.941406 47.109375 -3.59375 46.265625 -3.59375 C 42.742188 -3.59375 40.242188 -5.316406 38.765625 -8.765625 C 37.285156 -12.210938 36.546875 -17.882812 36.546875 -25.78125 C 36.546875 -33.519531 37.773438 -39.785156 40.234375 -44.578125 C 42.703125 -49.367188 46.828125 -51.765625 52.609375 -51.765625 Z M 61.265625 -51.765625 "/></g></g></g></svg>