<svg xmlns="http://www.w3.org/2000/svg" xmlns:xlink="http://www.w3.org/1999/xlink" width="500" zoomAndPan="magnify" viewBox="0 0 375 374.999991" height="500" preserveAspectRatio="xMidYMid meet" version="1.0"><defs><g/><clipPath id="3be628b1ed"><path d="M 0 55.167969 L 207 55.167969 L 207 337.167969 L 0 337.167969 Z M 0 55.167969 " clip-rule="nonzero"/></clipPath></defs><rect x="-37.5" width="450" fill="#ffffff" y="-37.499999" height="449.999989" fill-opacity="1"/><rect x="-37.5" width="450" fill="#e8e8e8" y="-37.499999" height="449.999989" fill-opacity="1"/><path fill="#3d3d3d" d="M 188.316406 149.808594 C 189.78125 149.808594 190.964844 149.214844 191.882812 148.027344 C 192.792969 146.839844 193.246094 145.359375 193.246094 143.589844 C 193.246094 141.683594 192.800781 140.15625 191.90625 139 C 191.011719 137.847656 189.855469 137.269531 188.433594 137.269531 C 186.925781 137.269531 185.71875 137.835938 184.816406 138.972656 C 183.910156 140.109375 183.460938 141.613281 183.460938 143.5 C 183.460938 145.382812 183.90625 146.90625 184.804688 148.066406 C 185.691406 149.230469 186.867188 149.808594 188.316406 149.808594 Z M 188.316406 149.808594 " fill-opacity="1" fill-rule="nonzero"/><path fill="#e8e8e8" d="M 140.609375 107.75 L 146.128906 107.75 L 146.128906 110.855469 L 140.609375 110.855469 Z M 140.609375 107.75 " fill-opacity="1" fill-rule="nonzero"/><g clip-path="url(#3be628b1ed)"><path fill="#3d3d3d" d="M 206.527344 250.6875 L 206.527344 90.402344 L 169.753906 90.402344 L 169.753906 107.746094 L 158.539062 107.746094 L 158.539062 63.621094 L 149.394531 63.621094 L 149.394531 55.242188 L 26.117188 55.242188 L 26.117188 63.617188 L 16.976562 63.617188 L 16.976562 326.960938 L 0.851562 326.960938 L 0.851562 337.417969 L 174.667969 337.417969 L 174.667969 326.960938 L 158.542969 326.960938 L 158.542969 233.335938 L 169.757812 233.335938 L 169.757812 250.679688 L 206.527344 250.679688 Z M 192.628906 230.988281 L 183.289062 230.988281 L 183.289062 230.621094 C 183.816406 230.621094 184.195312 230.453125 184.414062 230.125 C 184.636719 229.796875 184.75 229.242188 184.75 228.46875 L 184.75 220.347656 C 184.75 219.652344 184.648438 219.167969 184.441406 218.886719 C 184.226562 218.617188 183.847656 218.476562 183.289062 218.476562 L 183.289062 218.109375 L 187.90625 218.109375 L 187.90625 218.476562 C 187.390625 218.476562 187.023438 218.636719 186.800781 218.957031 C 186.578125 219.269531 186.464844 219.792969 186.464844 220.515625 L 186.464844 229.121094 C 186.464844 229.609375 186.5625 229.929688 186.769531 230.105469 C 186.96875 230.285156 187.355469 230.367188 187.925781 230.367188 L 190.488281 230.367188 C 191.273438 230.367188 191.832031 230.230469 192.144531 229.957031 C 192.460938 229.679688 192.757812 229.089844 193.035156 228.183594 L 193.417969 228.183594 Z M 184.570312 191.917969 C 184.363281 191.621094 183.980469 191.476562 183.414062 191.476562 L 183.414062 191.105469 L 192.699219 191.105469 L 192.699219 193.253906 L 192.457031 193.253906 C 192.324219 192.640625 192.140625 192.234375 191.890625 192.03125 C 191.648438 191.828125 191.113281 191.726562 190.292969 191.726562 L 186.578125 191.726562 L 186.578125 197.246094 L 190.183594 197.246094 C 190.671875 197.246094 191.007812 197.15625 191.1875 196.980469 C 191.367188 196.808594 191.5 196.472656 191.578125 195.984375 L 191.960938 195.984375 L 191.960938 199.113281 L 191.578125 199.113281 C 191.441406 198.566406 191.269531 198.21875 191.074219 198.082031 C 190.875 197.941406 190.441406 197.871094 189.773438 197.871094 L 186.582031 197.871094 L 186.582031 202.480469 C 186.582031 202.808594 186.652344 203.03125 186.792969 203.164062 C 186.9375 203.296875 187.179688 203.363281 187.523438 203.363281 L 189.773438 203.363281 C 190.582031 203.363281 191.136719 203.316406 191.445312 203.230469 C 191.753906 203.148438 192.015625 202.980469 192.222656 202.738281 C 192.4375 202.5 192.664062 202.113281 192.90625 201.582031 L 193.289062 201.582031 L 192.695312 203.984375 L 183.410156 203.984375 L 183.410156 203.613281 C 183.992188 203.613281 184.378906 203.464844 184.578125 203.171875 C 184.777344 202.871094 184.875 202.347656 184.875 201.59375 L 184.875 193.53125 C 184.878906 192.746094 184.777344 192.210938 184.570312 191.917969 Z M 194.117188 166.570312 L 193.863281 166.570312 C 193.699219 165.859375 193.414062 165.375 193 165.113281 C 192.585938 164.855469 191.964844 164.726562 191.136719 164.726562 L 189.183594 164.726562 L 189.183594 174.636719 C 189.183594 175.414062 189.277344 175.933594 189.46875 176.207031 C 189.660156 176.476562 190.027344 176.613281 190.578125 176.613281 L 190.578125 176.988281 L 186.019531 176.988281 L 186.019531 176.613281 C 186.585938 176.613281 186.96875 176.460938 187.175781 176.144531 C 187.378906 175.832031 187.480469 175.308594 187.480469 174.566406 L 187.480469 164.722656 L 185.609375 164.722656 C 184.71875 164.722656 184.070312 164.867188 183.664062 165.152344 C 183.253906 165.4375 183.023438 165.910156 182.976562 166.566406 L 182.59375 166.566406 L 182.59375 163.613281 L 182.976562 163.613281 C 183.324219 163.9375 183.964844 164.097656 184.90625 164.097656 L 191.664062 164.097656 C 192.636719 164.097656 193.320312 163.9375 193.710938 163.613281 L 194.117188 163.613281 Z M 181.671875 122.609375 C 182.238281 122.609375 182.621094 122.457031 182.828125 122.152344 C 183.035156 121.851562 183.136719 121.320312 183.136719 120.5625 L 183.136719 112.523438 C 183.136719 111.734375 183.03125 111.191406 182.820312 110.902344 C 182.609375 110.617188 182.230469 110.46875 181.671875 110.46875 L 181.671875 110.097656 L 186.328125 110.097656 L 186.328125 110.46875 C 185.765625 110.46875 185.375 110.625 185.160156 110.933594 C 184.945312 111.242188 184.835938 111.773438 184.835938 112.519531 L 184.835938 116.191406 L 191.855469 116.191406 L 191.855469 112.519531 C 191.855469 111.730469 191.757812 111.1875 191.550781 110.898438 C 191.351562 110.613281 190.972656 110.464844 190.414062 110.464844 L 190.414062 110.09375 L 195.027344 110.09375 L 195.027344 110.464844 C 194.480469 110.464844 194.101562 110.613281 193.886719 110.914062 C 193.671875 111.21875 193.566406 111.75 193.566406 112.519531 L 193.566406 120.558594 C 193.566406 121.332031 193.671875 121.863281 193.886719 122.160156 C 194.101562 122.457031 194.480469 122.605469 195.027344 122.605469 L 195.027344 122.976562 L 190.421875 122.976562 L 190.421875 122.605469 C 190.992188 122.605469 191.375 122.460938 191.570312 122.160156 C 191.765625 121.863281 191.859375 121.324219 191.859375 120.558594 L 191.859375 116.816406 L 184.84375 116.816406 L 184.84375 120.558594 C 184.84375 121.324219 184.949219 121.855469 185.164062 122.152344 C 185.378906 122.457031 185.773438 122.605469 186.335938 122.605469 L 186.335938 122.976562 L 181.675781 122.976562 L 181.675781 122.609375 Z M 183.460938 138.695312 C 184.777344 137.421875 186.421875 136.777344 188.394531 136.777344 C 190.304688 136.777344 191.921875 137.425781 193.246094 138.722656 C 194.570312 140.019531 195.230469 141.605469 195.230469 143.480469 C 195.230469 145.390625 194.5625 147.011719 193.230469 148.328125 C 191.890625 149.648438 190.265625 150.304688 188.339844 150.304688 C 186.425781 150.304688 184.800781 149.648438 183.472656 148.328125 C 182.144531 147.007812 181.480469 145.390625 181.480469 143.480469 C 181.480469 141.570312 182.140625 139.976562 183.460938 138.695312 Z M 119.589844 92.617188 C 119.589844 89.015625 122.507812 86.097656 126.109375 86.097656 L 139.613281 86.097656 C 143.214844 86.097656 146.132812 89.015625 146.132812 92.617188 L 146.132812 110.851562 L 119.59375 110.851562 L 119.59375 92.617188 Z M 74.488281 92.617188 C 74.488281 89.015625 77.40625 86.097656 81.007812 86.097656 L 94.507812 86.097656 C 98.109375 86.097656 101.027344 89.015625 101.027344 92.617188 L 101.027344 110.851562 L 74.488281 110.851562 Z M 74.488281 137.71875 C 74.488281 134.117188 77.40625 131.203125 81.007812 131.203125 L 94.507812 131.203125 C 98.109375 131.203125 101.027344 134.117188 101.027344 137.71875 L 101.027344 155.953125 L 74.488281 155.953125 Z M 74.488281 182.820312 C 74.488281 179.21875 77.40625 176.300781 81.007812 176.300781 L 94.507812 176.300781 C 98.109375 176.300781 101.027344 179.21875 101.027344 182.820312 L 101.027344 201.054688 L 74.488281 201.054688 Z M 74.488281 227.921875 C 74.488281 224.320312 77.40625 221.40625 81.007812 221.40625 L 94.507812 221.40625 C 98.109375 221.40625 101.027344 224.320312 101.027344 227.921875 L 101.027344 246.152344 L 74.488281 246.152344 Z M 55.925781 246.152344 L 29.386719 246.152344 L 29.386719 227.921875 C 29.386719 224.320312 32.304688 221.40625 35.90625 221.40625 L 49.40625 221.40625 C 53.007812 221.40625 55.925781 224.320312 55.925781 227.921875 Z M 55.925781 201.054688 L 29.386719 201.054688 L 29.386719 182.820312 C 29.386719 179.21875 32.304688 176.300781 35.90625 176.300781 L 49.40625 176.300781 C 53.007812 176.300781 55.925781 179.21875 55.925781 182.820312 Z M 55.925781 155.953125 L 29.386719 155.953125 L 29.386719 137.71875 C 29.386719 134.117188 32.304688 131.203125 35.90625 131.203125 L 49.40625 131.203125 C 53.007812 131.203125 55.925781 134.117188 55.925781 137.71875 Z M 55.925781 110.851562 L 29.386719 110.851562 L 29.386719 92.617188 C 29.386719 89.015625 32.304688 86.097656 35.90625 86.097656 L 49.40625 86.097656 C 53.007812 86.097656 55.925781 89.015625 55.925781 92.617188 Z M 108.613281 326.964844 L 66.898438 326.964844 L 66.898438 271.875 L 108.613281 271.875 Z M 146.128906 233.339844 L 146.128906 246.152344 L 119.589844 246.152344 L 119.589844 227.917969 C 119.589844 224.316406 122.507812 221.402344 126.109375 221.402344 L 139.613281 221.402344 C 142.164062 221.402344 144.378906 222.875 145.445312 225.011719 C 145.886719 225.886719 146.132812 226.871094 146.132812 227.917969 L 146.132812 233.339844 Z M 146.128906 201.054688 L 119.589844 201.054688 L 119.589844 182.820312 C 119.589844 179.21875 122.507812 176.300781 126.109375 176.300781 L 139.613281 176.300781 C 143.214844 176.300781 146.132812 179.21875 146.132812 182.820312 L 146.132812 201.054688 Z M 146.128906 155.953125 L 119.589844 155.953125 L 119.589844 137.71875 C 119.589844 134.117188 122.507812 131.203125 126.109375 131.203125 L 139.613281 131.203125 C 143.214844 131.203125 146.132812 134.117188 146.132812 137.71875 L 146.132812 155.953125 Z M 158.539062 225.011719 L 158.539062 116.078125 L 169.753906 116.078125 L 169.753906 225.011719 Z M 158.539062 225.011719 " fill-opacity="1" fill-rule="nonzero"/></g><g fill="#3d3d3d" fill-opacity="1"><g transform="translate(213.537545, 222.556663)"><g><path d="M 33.25 -54.75 L 11.4375 -54.75 L 11.4375 -53.453125 L 15.8125 -53.453125 L 15.8125 -3.40625 C 15.8125 -2 15.742188 -0.703125 15.609375 0.484375 C 15.472656 1.671875 15.203125 2.710938 14.796875 3.609375 C 14.390625 4.503906 13.832031 5.207031 13.125 5.71875 C 12.425781 6.226562 11.484375 6.484375 10.296875 6.484375 C 9.003906 6.484375 7.910156 6.332031 7.015625 6.03125 C 6.117188 5.738281 5.671875 5.484375 5.671875 5.265625 C 5.671875 5.054688 5.835938 4.953125 6.171875 4.953125 C 7.898438 4.953125 9.207031 4.421875 10.09375 3.359375 C 10.988281 2.304688 11.4375 1.132812 11.4375 -0.15625 C 11.4375 -1.457031 10.972656 -2.660156 10.046875 -3.765625 C 9.128906 -4.878906 7.753906 -5.4375 5.921875 -5.4375 C 4.191406 -5.4375 2.878906 -4.894531 1.984375 -3.8125 C 1.097656 -2.726562 0.65625 -1.457031 0.65625 0 C 0.65625 0.96875 0.84375 1.925781 1.21875 2.875 C 1.59375 3.820312 2.1875 4.671875 3 5.421875 C 3.8125 6.179688 4.835938 6.789062 6.078125 7.25 C 7.328125 7.71875 8.816406 7.953125 10.546875 7.953125 C 16.441406 7.953125 20.96875 6.351562 24.125 3.15625 C 27.289062 -0.03125 28.875 -4.921875 28.875 -11.515625 L 28.875 -53.453125 L 33.25 -53.453125 Z M 33.25 -54.75 "/></g></g></g><g fill="#3d3d3d" fill-opacity="1"><g transform="translate(245.575395, 222.556663)"><g><path d="M 18.65625 -35.4375 C 15.082031 -35.4375 12.132812 -34.894531 9.8125 -33.8125 C 7.488281 -32.738281 6.328125 -31.117188 6.328125 -28.953125 C 6.328125 -27.390625 6.769531 -26.269531 7.65625 -25.59375 C 8.550781 -24.914062 9.566406 -24.578125 10.703125 -24.578125 C 11.617188 -24.578125 12.359375 -24.722656 12.921875 -25.015625 C 13.492188 -25.316406 13.941406 -25.671875 14.265625 -26.078125 C 14.597656 -26.484375 14.816406 -26.925781 14.921875 -27.40625 C 15.035156 -27.894531 15.09375 -28.300781 15.09375 -28.625 C 15.09375 -29.976562 14.578125 -30.976562 13.546875 -31.625 C 13.171875 -31.84375 12.984375 -32.113281 12.984375 -32.4375 C 12.984375 -32.875 13.382812 -33.238281 14.1875 -33.53125 C 15 -33.832031 16.515625 -33.984375 18.734375 -33.984375 C 20.734375 -33.984375 22.03125 -33.441406 22.625 -32.359375 C 23.21875 -31.273438 23.515625 -29.765625 23.515625 -27.828125 L 23.515625 -21.328125 L 14.765625 -21.328125 C 12.546875 -21.328125 10.609375 -20.988281 8.953125 -20.3125 C 7.304688 -19.632812 5.925781 -18.753906 4.8125 -17.671875 C 3.707031 -16.597656 2.882812 -15.367188 2.34375 -13.984375 C 1.8125 -12.609375 1.546875 -11.21875 1.546875 -9.8125 C 1.546875 -8.351562 1.800781 -6.960938 2.3125 -5.640625 C 2.820312 -4.316406 3.59375 -3.164062 4.625 -2.1875 C 5.65625 -1.21875 6.9375 -0.453125 8.46875 0.109375 C 10.007812 0.679688 11.8125 0.96875 13.875 0.96875 C 15.21875 0.96875 16.414062 0.832031 17.46875 0.5625 C 18.53125 0.289062 19.46875 -0.0546875 20.28125 -0.484375 C 21.09375 -0.921875 21.804688 -1.378906 22.421875 -1.859375 C 23.046875 -2.347656 23.578125 -2.8125 24.015625 -3.25 C 24.492188 -2.113281 25.460938 -1.125 26.921875 -0.28125 C 28.390625 0.550781 30.5 0.96875 33.25 0.96875 C 35.195312 0.96875 36.738281 0.75 37.875 0.3125 C 39.007812 -0.113281 39.890625 -0.625 40.515625 -1.21875 C 41.140625 -1.8125 41.546875 -2.457031 41.734375 -3.15625 C 41.921875 -3.863281 42.015625 -4.515625 42.015625 -5.109375 C 42.015625 -5.546875 41.851562 -5.765625 41.53125 -5.765625 C 41.144531 -5.765625 40.925781 -5.519531 40.875 -5.03125 C 40.71875 -4.21875 40.460938 -3.515625 40.109375 -2.921875 C 39.753906 -2.328125 39.117188 -2.03125 38.203125 -2.03125 C 37.117188 -2.03125 36.425781 -2.394531 36.125 -3.125 C 35.832031 -3.851562 35.6875 -4.867188 35.6875 -6.171875 L 35.6875 -23.203125 C 35.6875 -25.472656 35.375 -27.390625 34.75 -28.953125 C 34.132812 -30.523438 33.132812 -31.796875 31.75 -32.765625 C 30.375 -33.742188 28.617188 -34.429688 26.484375 -34.828125 C 24.347656 -35.234375 21.738281 -35.4375 18.65625 -35.4375 Z M 23.515625 -19.875 L 23.515625 -5.671875 C 23.515625 -5.191406 23.285156 -4.691406 22.828125 -4.171875 C 22.367188 -3.660156 21.816406 -3.203125 21.171875 -2.796875 C 20.523438 -2.390625 19.875 -2.050781 19.21875 -1.78125 C 18.570312 -1.507812 18.085938 -1.375 17.765625 -1.375 C 16.410156 -1.375 15.445312 -2.035156 14.875 -3.359375 C 14.3125 -4.691406 14.03125 -6.867188 14.03125 -9.890625 C 14.03125 -12.867188 14.503906 -15.273438 15.453125 -17.109375 C 16.398438 -18.953125 17.984375 -19.875 20.203125 -19.875 Z M 23.515625 -19.875 "/></g></g></g><g fill="#3d3d3d" fill-opacity="1"><g transform="translate(285.967468, 222.556663)"><g><path d="M 34.796875 -31.875 C 34.796875 -31.226562 34.710938 -30.710938 34.546875 -30.328125 L 27.734375 -13.140625 L 18.40625 -33.578125 L 22.796875 -33.578125 L 22.796875 -34.875 L 1.625 -34.875 L 1.625 -33.578125 L 6 -33.578125 L 21.171875 0 L 23.921875 0 L 36.09375 -30.421875 C 36.582031 -31.609375 37.21875 -32.429688 38 -32.890625 C 38.78125 -33.347656 39.796875 -33.578125 41.046875 -33.578125 L 41.046875 -34.875 L 31.46875 -34.875 L 31.46875 -33.578125 C 32.65625 -33.578125 33.503906 -33.398438 34.015625 -33.046875 C 34.535156 -32.703125 34.796875 -32.3125 34.796875 -31.875 Z M 34.796875 -31.875 "/></g></g></g><g fill="#3d3d3d" fill-opacity="1"><g transform="translate(324.169599, 222.556663)"><g><path d="M 18.65625 -35.4375 C 15.082031 -35.4375 12.132812 -34.894531 9.8125 -33.8125 C 7.488281 -32.738281 6.328125 -31.117188 6.328125 -28.953125 C 6.328125 -27.390625 6.769531 -26.269531 7.65625 -25.59375 C 8.550781 -24.914062 9.566406 -24.578125 10.703125 -24.578125 C 11.617188 -24.578125 12.359375 -24.722656 12.921875 -25.015625 C 13.492188 -25.316406 13.941406 -25.671875 14.265625 -26.078125 C 14.597656 -26.484375 14.816406 -26.925781 14.921875 -27.40625 C 15.035156 -27.894531 15.09375 -28.300781 15.09375 -28.625 C 15.09375 -29.976562 14.578125 -30.976562 13.546875 -31.625 C 13.171875 -31.84375 12.984375 -32.113281 12.984375 -32.4375 C 12.984375 -32.875 13.382812 -33.238281 14.1875 -33.53125 C 15 -33.832031 16.515625 -33.984375 18.734375 -33.984375 C 20.734375 -33.984375 22.03125 -33.441406 22.625 -32.359375 C 23.21875 -31.273438 23.515625 -29.765625 23.515625 -27.828125 L 23.515625 -21.328125 L 14.765625 -21.328125 C 12.546875 -21.328125 10.609375 -20.988281 8.953125 -20.3125 C 7.304688 -19.632812 5.925781 -18.753906 4.8125 -17.671875 C 3.707031 -16.597656 2.882812 -15.367188 2.34375 -13.984375 C 1.8125 -12.609375 1.546875 -11.21875 1.546875 -9.8125 C 1.546875 -8.351562 1.800781 -6.960938 2.3125 -5.640625 C 2.820312 -4.316406 3.59375 -3.164062 4.625 -2.1875 C 5.65625 -1.21875 6.9375 -0.453125 8.46875 0.109375 C 10.007812 0.679688 11.8125 0.96875 13.875 0.96875 C 15.21875 0.96875 16.414062 0.832031 17.46875 0.5625 C 18.53125 0.289062 19.46875 -0.0546875 20.28125 -0.484375 C 21.09375 -0.921875 21.804688 -1.378906 22.421875 -1.859375 C 23.046875 -2.347656 23.578125 -2.8125 24.015625 -3.25 C 24.492188 -2.113281 25.460938 -1.125 26.921875 -0.28125 C 28.390625 0.550781 30.5 0.96875 33.25 0.96875 C 35.195312 0.96875 36.738281 0.75 37.875 0.3125 C 39.007812 -0.113281 39.890625 -0.625 40.515625 -1.21875 C 41.140625 -1.8125 41.546875 -2.457031 41.734375 -3.15625 C 41.921875 -3.863281 42.015625 -4.515625 42.015625 -5.109375 C 42.015625 -5.546875 41.851562 -5.765625 41.53125 -5.765625 C 41.144531 -5.765625 40.925781 -5.519531 40.875 -5.03125 C 40.71875 -4.21875 40.460938 -3.515625 40.109375 -2.921875 C 39.753906 -2.328125 39.117188 -2.03125 38.203125 -2.03125 C 37.117188 -2.03125 36.425781 -2.394531 36.125 -3.125 C 35.832031 -3.851562 35.6875 -4.867188 35.6875 -6.171875 L 35.6875 -23.203125 C 35.6875 -25.472656 35.375 -27.390625 34.75 -28.953125 C 34.132812 -30.523438 33.132812 -31.796875 31.75 -32.765625 C 30.375 -33.742188 28.617188 -34.429688 26.484375 -34.828125 C 24.347656 -35.234375 21.738281 -35.4375 18.65625 -35.4375 Z M 23.515625 -19.875 L 23.515625 -5.671875 C 23.515625 -5.191406 23.285156 -4.691406 22.828125 -4.171875 C 22.367188 -3.660156 21.816406 -3.203125 21.171875 -2.796875 C 20.523438 -2.390625 19.875 -2.050781 19.21875 -1.78125 C 18.570312 -1.507812 18.085938 -1.375 17.765625 -1.375 C 16.410156 -1.375 15.445312 -2.035156 14.875 -3.359375 C 14.3125 -4.691406 14.03125 -6.867188 14.03125 -9.890625 C 14.03125 -12.867188 14.503906 -15.273438 15.453125 -17.109375 C 16.398438 -18.953125 17.984375 -19.875 20.203125 -19.875 Z M 23.515625 -19.875 "/></g></g></g><g fill="#3d3d3d" fill-opacity="1"><g transform="translate(242.313915, 279.914778)"><g><path d="M 29.4375 -48.46875 L 10.125 -48.46875 L 10.125 -47.3125 L 14 -47.3125 L 14 -3.015625 C 14 -1.773438 13.9375 -0.628906 13.8125 0.421875 C 13.695312 1.484375 13.457031 2.40625 13.09375 3.1875 C 12.738281 3.976562 12.25 4.601562 11.625 5.0625 C 11.007812 5.519531 10.175781 5.75 9.125 5.75 C 7.96875 5.75 6.992188 5.613281 6.203125 5.34375 C 5.421875 5.082031 5.03125 4.859375 5.03125 4.671875 C 5.03125 4.472656 5.171875 4.375 5.453125 4.375 C 6.984375 4.375 8.144531 3.90625 8.9375 2.96875 C 9.726562 2.039062 10.125 1.003906 10.125 -0.140625 C 10.125 -1.285156 9.71875 -2.347656 8.90625 -3.328125 C 8.09375 -4.316406 6.867188 -4.8125 5.234375 -4.8125 C 3.703125 -4.8125 2.539062 -4.332031 1.75 -3.375 C 0.96875 -2.414062 0.578125 -1.289062 0.578125 0 C 0.578125 0.863281 0.742188 1.710938 1.078125 2.546875 C 1.410156 3.390625 1.9375 4.144531 2.65625 4.8125 C 3.375 5.476562 4.28125 6.015625 5.375 6.421875 C 6.476562 6.828125 7.796875 7.03125 9.328125 7.03125 C 14.546875 7.03125 18.554688 5.617188 21.359375 2.796875 C 24.160156 -0.0234375 25.5625 -4.351562 25.5625 -10.1875 L 25.5625 -47.3125 L 29.4375 -47.3125 Z M 29.4375 -48.46875 "/></g></g></g><g fill="#3d3d3d" fill-opacity="1"><g transform="translate(270.67005, 279.914778)"><g><path d="M 1.15625 -15.296875 C 1.15625 -13.285156 1.488281 -11.3125 2.15625 -9.375 C 2.820312 -7.4375 3.8125 -5.710938 5.125 -4.203125 C 6.445312 -2.691406 8.125 -1.46875 10.15625 -0.53125 C 12.1875 0.394531 14.566406 0.859375 17.296875 0.859375 C 20.023438 0.859375 22.40625 0.394531 24.4375 -0.53125 C 26.476562 -1.46875 28.15625 -2.691406 29.46875 -4.203125 C 30.789062 -5.710938 31.785156 -7.4375 32.453125 -9.375 C 33.117188 -11.3125 33.453125 -13.285156 33.453125 -15.296875 C 33.453125 -17.304688 33.117188 -19.28125 32.453125 -21.21875 C 31.785156 -23.15625 30.789062 -24.875 29.46875 -26.375 C 28.15625 -27.882812 26.476562 -29.109375 24.4375 -30.046875 C 22.40625 -30.984375 20.023438 -31.453125 17.296875 -31.453125 C 14.566406 -31.453125 12.1875 -30.984375 10.15625 -30.046875 C 8.125 -29.109375 6.445312 -27.882812 5.125 -26.375 C 3.8125 -24.875 2.820312 -23.15625 2.15625 -21.21875 C 1.488281 -19.28125 1.15625 -17.304688 1.15625 -15.296875 Z M 12.28125 -17.953125 C 12.28125 -19.867188 12.328125 -21.59375 12.421875 -23.125 C 12.515625 -24.65625 12.726562 -25.929688 13.0625 -26.953125 C 13.394531 -27.984375 13.894531 -28.773438 14.5625 -29.328125 C 15.238281 -29.878906 16.148438 -30.15625 17.296875 -30.15625 C 18.453125 -30.15625 19.363281 -29.878906 20.03125 -29.328125 C 20.695312 -28.773438 21.195312 -27.984375 21.53125 -26.953125 C 21.875 -25.929688 22.09375 -24.65625 22.1875 -23.125 C 22.28125 -21.59375 22.328125 -19.867188 22.328125 -17.953125 L 22.328125 -12.34375 C 22.328125 -10.382812 22.28125 -8.660156 22.1875 -7.171875 C 22.09375 -5.691406 21.875 -4.445312 21.53125 -3.4375 C 21.195312 -2.4375 20.695312 -1.6875 20.03125 -1.1875 C 19.363281 -0.6875 18.453125 -0.4375 17.296875 -0.4375 C 16.148438 -0.4375 15.238281 -0.6875 14.5625 -1.1875 C 13.894531 -1.6875 13.394531 -2.4375 13.0625 -3.4375 C 12.726562 -4.445312 12.515625 -5.691406 12.421875 -7.171875 C 12.328125 -8.660156 12.28125 -10.382812 12.28125 -12.34375 Z M 12.28125 -17.953125 "/></g></g></g><g fill="#3d3d3d" fill-opacity="1"><g transform="translate(302.400268, 279.914778)"><g><path d="M 22.828125 -0.4375 L 32.953125 -26.921875 C 33.335938 -27.972656 33.910156 -28.703125 34.671875 -29.109375 C 35.441406 -29.515625 36.304688 -29.71875 37.265625 -29.71875 L 37.265625 -30.875 L 28.796875 -30.875 L 28.796875 -29.71875 C 29.941406 -29.71875 30.726562 -29.535156 31.15625 -29.171875 C 31.59375 -28.816406 31.8125 -28.453125 31.8125 -28.078125 C 31.8125 -27.597656 31.738281 -27.210938 31.59375 -26.921875 L 25.203125 -10.1875 L 15.9375 -29.71875 L 19.8125 -29.71875 L 19.8125 -30.875 L 1.296875 -30.875 L 1.296875 -29.71875 L 5.09375 -29.71875 L 20.53125 2.4375 C 20.289062 3.445312 20.003906 4.5 19.671875 5.59375 C 19.335938 6.695312 18.859375 8.132812 18.234375 9.90625 C 17.472656 12.101562 16.625 13.882812 15.6875 15.25 C 14.75 16.613281 13.394531 17.296875 11.625 17.296875 C 12.101562 16.960938 12.5 16.546875 12.8125 16.046875 C 13.125 15.546875 13.28125 14.789062 13.28125 13.78125 C 13.28125 12.6875 12.894531 11.71875 12.125 10.875 C 11.363281 10.039062 10.3125 9.625 8.96875 9.625 C 7.632812 9.625 6.523438 10.03125 5.640625 10.84375 C 4.753906 11.65625 4.3125 12.660156 4.3125 13.859375 C 4.3125 15.484375 4.882812 16.703125 6.03125 17.515625 C 7.175781 18.328125 8.445312 18.734375 9.84375 18.734375 C 11.226562 18.734375 12.398438 18.601562 13.359375 18.34375 C 14.316406 18.082031 15.128906 17.648438 15.796875 17.046875 C 16.460938 16.453125 17.054688 15.675781 17.578125 14.71875 C 18.109375 13.757812 18.640625 12.5625 19.171875 11.125 C 19.503906 10.164062 19.835938 9.148438 20.171875 8.078125 C 20.503906 7.003906 20.828125 5.953125 21.140625 4.921875 C 21.453125 3.890625 21.75 2.90625 22.03125 1.96875 C 22.320312 1.039062 22.585938 0.238281 22.828125 -0.4375 Z M 22.828125 -0.4375 "/></g></g></g><g fill="#3d3d3d" fill-opacity="1"><g transform="translate(337.791738, 279.914778)"><g><path d="M 16.515625 -31.375 C 13.359375 -31.375 10.75 -30.894531 8.6875 -29.9375 C 6.625 -28.976562 5.59375 -27.539062 5.59375 -25.625 C 5.59375 -24.238281 5.988281 -23.242188 6.78125 -22.640625 C 7.570312 -22.046875 8.472656 -21.75 9.484375 -21.75 C 10.296875 -21.75 10.953125 -21.878906 11.453125 -22.140625 C 11.953125 -22.410156 12.34375 -22.722656 12.625 -23.078125 C 12.914062 -23.441406 13.109375 -23.835938 13.203125 -24.265625 C 13.304688 -24.691406 13.359375 -25.050781 13.359375 -25.34375 C 13.359375 -26.539062 12.898438 -27.425781 11.984375 -28 C 11.648438 -28.1875 11.484375 -28.425781 11.484375 -28.71875 C 11.484375 -29.101562 11.84375 -29.425781 12.5625 -29.6875 C 13.28125 -29.945312 14.617188 -30.078125 16.578125 -30.078125 C 18.347656 -30.078125 19.5 -29.597656 20.03125 -28.640625 C 20.5625 -27.691406 20.828125 -26.351562 20.828125 -24.625 L 20.828125 -18.875 L 13.0625 -18.875 C 11.101562 -18.875 9.394531 -18.578125 7.9375 -17.984375 C 6.476562 -17.390625 5.253906 -16.613281 4.265625 -15.65625 C 3.285156 -14.695312 2.554688 -13.601562 2.078125 -12.375 C 1.597656 -11.15625 1.359375 -9.925781 1.359375 -8.6875 C 1.359375 -7.394531 1.585938 -6.160156 2.046875 -4.984375 C 2.503906 -3.816406 3.1875 -2.800781 4.09375 -1.9375 C 5 -1.070312 6.132812 -0.390625 7.5 0.109375 C 8.863281 0.609375 10.457031 0.859375 12.28125 0.859375 C 13.476562 0.859375 14.539062 0.738281 15.46875 0.5 C 16.40625 0.257812 17.234375 -0.046875 17.953125 -0.421875 C 18.671875 -0.804688 19.300781 -1.210938 19.84375 -1.640625 C 20.394531 -2.078125 20.863281 -2.488281 21.25 -2.875 C 21.675781 -1.863281 22.535156 -0.988281 23.828125 -0.25 C 25.128906 0.488281 27 0.859375 29.4375 0.859375 C 31.15625 0.859375 32.515625 0.664062 33.515625 0.28125 C 34.523438 -0.09375 35.304688 -0.539062 35.859375 -1.0625 C 36.410156 -1.59375 36.769531 -2.171875 36.9375 -2.796875 C 37.101562 -3.421875 37.1875 -3.992188 37.1875 -4.515625 C 37.1875 -4.898438 37.046875 -5.09375 36.765625 -5.09375 C 36.421875 -5.09375 36.226562 -4.878906 36.1875 -4.453125 C 36.039062 -3.734375 35.8125 -3.109375 35.5 -2.578125 C 35.1875 -2.054688 34.625 -1.796875 33.8125 -1.796875 C 32.851562 -1.796875 32.242188 -2.117188 31.984375 -2.765625 C 31.722656 -3.410156 31.59375 -4.304688 31.59375 -5.453125 L 31.59375 -20.53125 C 31.59375 -22.539062 31.316406 -24.238281 30.765625 -25.625 C 30.210938 -27.019531 29.328125 -28.144531 28.109375 -29 C 26.890625 -29.863281 25.332031 -30.472656 23.4375 -30.828125 C 21.550781 -31.191406 19.242188 -31.375 16.515625 -31.375 Z M 20.828125 -17.59375 L 20.828125 -5.03125 C 20.828125 -4.59375 20.617188 -4.144531 20.203125 -3.6875 C 19.796875 -3.238281 19.304688 -2.832031 18.734375 -2.46875 C 18.160156 -2.113281 17.585938 -1.816406 17.015625 -1.578125 C 16.441406 -1.335938 16.007812 -1.21875 15.71875 -1.21875 C 14.519531 -1.21875 13.671875 -1.800781 13.171875 -2.96875 C 12.671875 -4.144531 12.421875 -6.078125 12.421875 -8.765625 C 12.421875 -11.390625 12.835938 -13.515625 13.671875 -15.140625 C 14.515625 -16.773438 15.914062 -17.59375 17.875 -17.59375 Z M 20.828125 -17.59375 "/></g></g></g></svg>